<svg id="svg" version="1.1" xmlns="http://www.w3.org/2000/svg" xmlns:xlink="http://www.w3.org/1999/xlink" width="400" height="400" viewBox="0, 0, 400,400"><g id="svgg"><path id="path0" d="M84.400 130.589 C 64.908 133.471,48.951 147.484,43.417 166.579 C 36.119 191.764,51.743 214.729,77.702 216.974 C 84.248 217.540,92.747 215.535,87.700 214.616 C 80.203 213.250,70.041 205.836,65.012 198.061 C 53.425 180.149,59.966 155.556,79.000 145.474 C 88.453 140.467,93.911 139.973,99.832 143.586 C 116.466 153.739,123.130 166.264,123.993 189.000 C 124.452 201.099,124.985 203.956,127.878 209.837 C 132.483 219.199,139.711 224.000,149.199 224.000 L 152.557 224.000 150.388 222.919 C 141.807 218.643,139.189 208.148,141.976 189.200 C 147.118 154.239,118.877 125.491,84.400 130.589 M347.140 148.687 C 333.158 165.658,332.800 166.122,332.800 167.280 C 332.800 167.896,332.935 168.423,333.100 168.450 C 333.265 168.478,336.928 168.541,341.240 168.590 C 350.786 168.698,350.000 168.233,350.000 173.775 C 350.000 178.839,350.101 179.042,352.600 179.012 L 354.200 178.993 354.459 176.197 C 354.602 174.658,354.633 172.680,354.528 171.800 C 354.294 169.836,355.062 168.663,356.657 168.548 C 357.286 168.502,357.935 168.450,358.100 168.432 C 358.265 168.415,358.400 167.792,358.400 167.049 C 358.400 165.556,357.637 164.657,356.682 165.024 C 354.629 165.812,354.362 164.352,354.422 152.683 C 354.493 138.909,354.977 139.174,347.140 148.687 M316.200 148.062 C 315.290 148.560,314.400 149.577,314.400 150.119 C 314.400 150.320,314.922 149.926,315.560 149.242 C 318.732 145.847,323.554 150.016,320.564 153.569 C 319.121 155.285,317.170 155.281,315.560 153.558 C 314.922 152.874,314.400 152.523,314.400 152.777 C 314.400 155.079,318.904 155.958,320.831 154.031 C 323.949 150.913,320.087 145.936,316.200 148.062 M250.400 148.704 C 249.190 148.761,247.795 148.899,247.300 149.011 L 246.400 149.215 246.400 176.421 L 246.400 203.627 250.700 203.514 L 255.000 203.400 255.118 176.663 C 255.201 158.001,255.106 149.769,254.806 149.407 C 254.259 148.749,253.162 148.573,250.400 148.704 M165.627 149.550 C 164.793 151.108,165.029 202.883,165.873 203.516 C 166.556 204.028,172.795 203.883,173.700 203.335 C 174.055 203.119,174.111 150.355,173.757 149.433 C 173.365 148.410,166.182 148.513,165.627 149.550 M180.316 151.291 C 180.217 152.664,180.218 154.645,180.319 155.694 L 180.502 157.600 192.602 157.600 C 203.367 157.600,204.763 157.673,205.251 158.261 C 205.699 158.800,205.821 163.043,205.916 181.261 L 206.032 203.600 210.216 203.600 L 214.400 203.600 214.400 181.489 C 214.400 162.124,214.477 159.268,215.023 158.489 C 215.643 157.604,215.693 157.600,227.794 157.600 L 239.942 157.600 240.210 155.455 C 240.358 154.275,240.324 152.340,240.136 151.155 L 239.793 149.000 210.145 148.897 L 180.497 148.795 180.316 151.291 M267.500 149.224 C 266.728 149.682,266.382 202.894,267.148 203.368 C 267.339 203.486,278.544 203.595,292.048 203.611 L 316.600 203.639 316.800 200.065 C 316.910 198.099,316.942 196.200,316.871 195.845 C 316.754 195.262,314.844 195.200,297.047 195.200 C 280.672 195.200,277.222 195.104,276.576 194.632 C 275.828 194.085,275.793 193.253,275.600 171.532 L 275.400 149.000 271.800 148.904 C 269.820 148.852,267.885 148.996,267.500 149.224 M90.400 151.037 C 82.750 152.420,77.057 155.889,71.945 162.285 C 66.106 169.589,65.221 185.359,70.219 193.074 C 70.530 193.555,71.168 194.635,71.636 195.474 C 74.153 199.985,81.068 206.578,85.678 208.862 C 90.805 211.401,94.942 212.631,96.985 212.223 C 98.352 211.950,102.243 209.366,106.206 206.099 C 107.821 204.768,107.902 203.849,106.312 204.889 C 101.039 208.339,94.676 206.637,88.104 200.018 C 72.830 184.635,85.908 156.000,108.207 156.000 C 111.314 156.000,111.290 155.660,108.071 154.037 C 103.260 151.610,94.994 150.207,90.400 151.037 M350.221 154.654 C 350.625 158.434,350.231 164.406,349.548 164.847 C 348.737 165.370,339.000 165.104,339.000 164.559 C 339.000 163.994,349.103 152.000,349.579 152.000 C 349.775 152.000,350.064 153.194,350.221 154.654 M120.267 251.067 C 120.120 251.213,120.000 255.353,120.000 260.267 L 120.000 269.200 121.200 269.200 L 122.400 269.200 122.406 265.500 C 122.414 260.653,122.967 260.000,127.055 260.000 C 130.233 260.000,129.295 258.633,126.011 258.479 C 122.763 258.326,122.400 258.017,122.400 255.400 C 122.400 252.639,122.703 252.452,127.418 252.315 C 130.829 252.216,131.410 252.101,131.525 251.500 C 131.662 250.781,120.964 250.369,120.267 251.067 M140.600 251.403 C 130.361 256.950,137.660 273.651,147.995 268.325 C 153.463 265.508,153.905 255.423,148.705 252.140 C 146.553 250.782,142.438 250.407,140.600 251.403 M158.547 251.394 C 157.999 252.821,158.615 265.383,159.294 266.646 C 160.291 268.498,162.349 269.316,165.559 269.134 C 170.926 268.831,171.676 267.367,171.510 257.520 L 171.400 251.000 170.400 251.000 L 169.400 251.000 169.200 258.000 C 168.957 266.495,168.502 267.600,165.245 267.600 C 161.514 267.600,160.800 265.958,160.800 257.386 L 160.800 250.800 159.787 250.800 C 159.231 250.800,158.672 251.067,158.547 251.394 M179.200 260.027 L 179.200 269.253 180.300 269.127 L 181.400 269.000 181.512 263.208 C 181.636 256.767,181.858 256.128,183.301 258.066 C 184.850 260.147,187.475 263.955,189.270 266.727 C 191.512 270.191,191.632 269.819,191.508 259.772 L 191.400 251.000 190.300 250.873 C 189.043 250.729,189.136 250.247,189.197 256.615 C 189.269 264.036,189.182 264.036,183.932 256.600 C 181.680 253.410,179.694 250.800,179.518 250.800 C 179.343 250.800,179.200 254.952,179.200 260.027 M199.379 251.310 C 199.272 251.590,199.232 255.685,199.292 260.410 L 199.400 269.000 202.200 269.127 C 209.179 269.442,212.384 265.950,211.909 258.545 C 211.570 253.257,208.652 250.800,202.709 250.800 C 200.538 250.800,199.515 250.957,199.379 251.310 M232.075 251.500 C 232.182 252.065,232.707 252.223,234.789 252.321 C 238.555 252.498,238.400 252.116,238.400 261.249 L 238.400 269.200 239.400 269.200 C 239.950 269.200,240.402 269.065,240.405 268.900 C 240.408 268.735,240.453 265.210,240.505 261.067 C 240.615 252.307,240.573 252.400,244.476 252.400 C 246.533 252.400,246.800 252.308,246.800 251.600 C 246.800 250.829,246.533 250.800,239.371 250.800 C 232.511 250.800,231.952 250.854,232.075 251.500 M252.594 251.700 C 252.473 252.195,252.424 256.290,252.487 260.800 L 252.600 269.000 253.700 269.127 L 254.800 269.253 254.800 260.027 L 254.800 250.800 253.808 250.800 C 253.111 250.800,252.749 251.068,252.594 251.700 M266.390 251.700 C 260.594 254.632,260.323 265.285,265.969 268.271 C 270.748 270.798,276.572 268.366,277.994 263.247 C 280.310 254.906,273.483 248.112,266.390 251.700 M284.709 251.093 C 284.432 251.674,284.319 267.514,284.586 268.357 C 284.761 268.907,285.189 269.200,285.817 269.200 L 286.779 269.200 286.890 263.133 C 287.039 254.903,286.595 254.762,293.707 265.297 C 295.006 267.221,296.233 268.897,296.434 269.021 C 296.651 269.155,296.800 265.487,296.800 259.997 L 296.800 250.747 295.700 250.873 L 294.600 251.000 294.489 256.500 C 294.428 259.525,294.231 262.000,294.051 262.000 C 293.613 262.000,291.110 258.964,288.026 254.691 C 285.406 251.060,284.957 250.574,284.709 251.093 M223.600 251.640 C 223.600 251.881,223.348 252.646,223.041 253.340 C 222.383 254.822,217.200 268.769,217.200 269.057 C 217.200 270.122,219.404 268.770,219.869 267.419 C 220.579 265.359,220.868 265.213,224.271 265.206 C 227.311 265.200,228.400 265.725,228.400 267.196 C 228.400 268.640,228.871 269.200,230.086 269.200 C 231.065 269.200,231.236 269.071,231.015 268.500 C 230.444 267.024,225.672 254.127,225.168 252.700 C 224.685 251.328,223.600 250.595,223.600 251.640 M146.778 253.101 C 149.820 254.644,151.041 260.397,149.154 264.294 C 146.860 269.034,141.190 269.035,138.983 264.295 C 135.732 257.311,140.782 250.058,146.778 253.101 M207.484 253.418 C 210.145 255.162,210.519 262.999,208.072 265.756 C 206.495 267.533,203.279 268.422,202.229 267.371 C 201.398 266.541,201.280 253.010,202.100 252.642 C 202.977 252.248,206.466 252.751,207.484 253.418 M272.794 253.101 C 277.478 255.451,277.134 264.745,272.273 267.155 C 266.527 270.005,261.751 261.961,265.189 255.222 C 266.553 252.548,269.856 251.627,272.794 253.101 M225.751 259.025 C 227.170 263.383,227.063 263.674,224.105 263.520 C 221.307 263.374,221.140 262.943,222.415 259.150 C 223.949 254.589,224.302 254.576,225.751 259.025 " stroke="none" fill="#622c55" fill-rule="evenodd"></path><path id="path1" d="M183.800 9.058 C 181.600 9.139,179.440 9.377,179.000 9.587 C 178.560 9.796,176.239 10.155,173.842 10.383 C 171.446 10.611,169.286 10.951,169.042 11.138 C 168.799 11.325,166.710 11.707,164.400 11.988 C 162.090 12.268,160.020 12.629,159.800 12.790 C 159.580 12.951,158.005 13.315,156.300 13.598 C 154.595 13.881,153.200 14.239,153.200 14.393 C 153.200 14.546,151.940 14.897,150.400 15.172 C 148.860 15.447,147.600 15.795,147.600 15.945 C 147.600 16.095,146.394 16.446,144.920 16.726 C 143.447 17.005,142.052 17.386,141.820 17.573 C 141.589 17.759,140.365 18.140,139.100 18.419 C 137.835 18.699,136.800 19.057,136.800 19.216 C 136.800 19.375,135.947 19.720,134.905 19.982 C 133.863 20.245,132.828 20.600,132.605 20.771 C 132.382 20.943,131.345 21.329,130.300 21.629 C 129.255 21.929,128.400 22.301,128.400 22.456 C 128.400 22.610,127.815 22.860,127.100 23.011 C 126.385 23.163,125.260 23.607,124.600 24.000 C 123.940 24.393,122.815 24.837,122.100 24.989 C 121.385 25.140,120.800 25.400,120.800 25.568 C 120.800 25.735,120.080 26.110,119.200 26.400 C 118.320 26.690,117.600 27.079,117.600 27.264 C 117.600 27.449,117.375 27.600,117.100 27.600 C 116.600 27.600,111.577 30.003,111.200 30.423 C 111.090 30.545,110.370 30.895,109.600 31.200 C 108.830 31.505,108.110 31.855,108.000 31.978 C 107.890 32.101,107.260 32.471,106.600 32.800 C 105.940 33.129,105.310 33.506,105.200 33.638 C 104.973 33.908,103.230 34.871,101.300 35.791 C 100.585 36.132,100.000 36.552,100.000 36.725 C 100.000 36.898,99.370 37.267,98.600 37.546 C 97.830 37.824,97.200 38.198,97.200 38.377 C 97.200 38.556,96.660 38.927,96.000 39.200 C 95.340 39.473,94.800 39.833,94.800 40.000 C 94.800 40.167,94.260 40.527,93.600 40.800 C 92.940 41.073,92.400 41.433,92.400 41.600 C 92.400 41.767,91.860 42.127,91.200 42.400 C 90.540 42.673,90.000 43.043,90.000 43.222 C 90.000 43.400,89.660 43.654,89.245 43.786 C 88.565 44.001,87.385 44.907,85.566 46.608 C 85.218 46.933,84.783 47.200,84.600 47.200 C 84.417 47.200,83.982 47.476,83.634 47.814 C 83.285 48.152,81.920 49.277,80.599 50.314 C 77.700 52.592,77.249 52.982,74.256 55.796 C 72.967 57.008,71.774 58.000,71.606 58.000 C 71.185 58.000,58.538 70.673,57.246 72.390 C 56.671 73.154,55.615 74.323,54.900 74.987 C 54.185 75.651,53.600 76.333,53.600 76.502 C 53.600 76.796,51.558 79.162,49.756 80.959 C 49.291 81.421,48.789 82.188,48.640 82.663 C 48.491 83.138,48.106 83.627,47.785 83.750 C 47.463 83.874,47.200 84.244,47.200 84.573 C 47.200 84.903,46.840 85.365,46.400 85.600 C 45.960 85.835,45.600 86.297,45.600 86.627 C 45.600 86.956,45.346 87.322,45.037 87.441 C 44.727 87.560,44.255 88.185,43.988 88.829 C 43.721 89.473,43.367 90.000,43.200 90.000 C 43.033 90.000,42.673 90.540,42.400 91.200 C 42.127 91.860,41.767 92.400,41.600 92.400 C 41.433 92.400,41.073 92.940,40.800 93.600 C 40.527 94.260,40.167 94.800,40.000 94.800 C 39.833 94.800,39.479 95.327,39.212 95.971 C 38.945 96.615,38.490 97.233,38.201 97.344 C 37.912 97.455,37.557 98.083,37.413 98.740 C 37.269 99.396,36.909 100.026,36.613 100.140 C 36.317 100.253,35.954 100.898,35.806 101.573 C 35.658 102.248,35.361 102.800,35.147 102.800 C 34.933 102.800,34.570 103.340,34.340 104.000 C 34.110 104.660,33.781 105.200,33.609 105.200 C 33.438 105.200,33.061 105.785,32.772 106.500 C 32.483 107.215,32.008 107.946,31.715 108.125 C 31.423 108.303,31.288 108.618,31.415 108.825 C 31.543 109.031,31.457 109.200,31.224 109.200 C 30.991 109.200,30.800 109.650,30.800 110.200 C 30.800 110.750,30.620 111.200,30.400 111.200 C 30.180 111.200,30.000 111.470,30.000 111.800 C 30.000 112.130,29.859 112.400,29.688 112.400 C 29.399 112.400,28.595 114.140,28.507 114.955 C 28.486 115.151,28.307 115.421,28.109 115.555 C 27.912 115.690,27.323 116.880,26.800 118.200 C 26.277 119.520,25.722 120.690,25.566 120.800 C 25.410 120.910,25.077 121.765,24.826 122.700 C 24.575 123.635,24.214 124.400,24.024 124.400 C 23.835 124.400,23.464 125.300,23.200 126.400 C 22.936 127.500,22.591 128.400,22.432 128.400 C 22.274 128.400,21.900 129.300,21.600 130.400 C 21.300 131.500,20.937 132.400,20.792 132.400 C 20.646 132.400,20.290 133.390,20.000 134.600 C 19.710 135.810,19.346 136.800,19.191 136.800 C 19.036 136.800,18.680 137.880,18.400 139.200 C 18.120 140.520,17.759 141.600,17.597 141.600 C 17.436 141.600,17.084 142.725,16.814 144.100 C 16.545 145.475,16.189 146.780,16.022 147.000 C 15.856 147.220,15.482 148.570,15.192 150.000 C 14.902 151.430,14.418 152.984,14.117 153.453 C 13.816 153.923,13.607 154.463,13.654 154.653 C 13.817 155.319,13.104 159.612,12.799 159.801 C 12.630 159.905,12.260 161.838,11.977 164.095 C 11.694 166.353,11.336 168.290,11.182 168.400 C 11.027 168.510,10.680 171.120,10.410 174.200 C 10.140 177.280,9.757 180.160,9.559 180.600 C 8.520 182.910,8.560 218.387,9.603 219.800 C 9.868 220.158,10.226 223.370,10.622 228.935 C 10.698 229.999,10.925 231.079,11.126 231.335 C 11.328 231.591,11.706 233.502,11.967 235.583 C 12.227 237.664,12.587 239.554,12.767 239.783 C 12.947 240.012,13.324 241.730,13.606 243.600 C 13.887 245.470,14.293 247.115,14.509 247.255 C 14.724 247.395,14.920 248.250,14.943 249.155 C 14.967 250.060,15.125 250.800,15.293 250.800 C 15.462 250.800,15.600 251.239,15.600 251.776 C 15.600 252.313,15.750 252.845,15.932 252.958 C 16.115 253.071,16.495 254.207,16.777 255.482 C 17.059 256.757,17.429 257.980,17.600 258.200 C 17.771 258.420,18.140 259.635,18.419 260.900 C 18.699 262.165,19.056 263.200,19.214 263.200 C 19.371 263.200,19.599 263.695,19.721 264.300 C 19.842 264.905,20.164 265.940,20.435 266.600 C 20.706 267.260,20.892 268.025,20.847 268.300 C 20.802 268.575,20.945 268.800,21.164 268.800 C 21.384 268.800,21.682 269.430,21.826 270.200 C 21.971 270.970,22.229 271.600,22.401 271.600 C 22.573 271.600,22.835 272.095,22.984 272.700 C 23.248 273.768,23.551 274.490,25.753 279.275 C 26.329 280.526,26.800 281.741,26.800 281.975 C 26.800 282.209,26.980 282.400,27.200 282.400 C 27.420 282.400,27.600 282.595,27.600 282.834 C 27.600 283.294,30.044 288.460,30.423 288.800 C 30.545 288.910,30.895 289.630,31.200 290.400 C 31.505 291.170,31.865 291.890,32.000 292.000 C 32.135 292.110,32.482 292.785,32.771 293.500 C 33.060 294.215,33.438 294.800,33.609 294.800 C 33.781 294.800,34.110 295.340,34.340 296.000 C 34.570 296.660,34.933 297.200,35.147 297.200 C 35.361 297.200,35.655 297.739,35.799 298.398 C 35.944 299.056,36.284 299.731,36.555 299.898 C 36.825 300.064,37.283 300.785,37.572 301.500 C 37.861 302.215,38.255 302.800,38.449 302.800 C 38.642 302.800,38.800 303.025,38.800 303.300 C 38.801 303.575,39.251 304.323,39.800 304.962 C 40.350 305.601,40.800 306.264,40.800 306.434 C 40.800 306.604,41.025 306.981,41.300 307.271 C 42.144 308.164,45.200 312.706,45.200 313.069 C 45.200 313.256,45.650 313.748,46.200 314.161 C 46.750 314.574,47.200 315.085,47.200 315.297 C 47.200 315.822,51.182 320.734,55.200 325.165 C 56.080 326.136,56.800 327.067,56.800 327.235 C 56.800 327.403,59.725 330.453,63.300 334.014 C 66.875 337.574,69.800 340.693,69.800 340.944 C 69.800 341.195,69.980 341.416,70.200 341.435 C 71.120 341.514,72.124 342.203,74.299 344.247 C 77.720 347.460,80.143 349.471,83.402 351.800 C 84.018 352.240,84.854 352.915,85.261 353.300 C 85.667 353.685,86.082 354.000,86.182 354.000 C 86.354 354.000,91.253 357.528,92.285 358.396 C 92.552 358.620,93.227 359.012,93.785 359.266 C 94.343 359.520,94.800 359.858,94.800 360.016 C 94.800 360.174,95.340 360.527,96.000 360.800 C 96.660 361.073,97.200 361.444,97.200 361.623 C 97.200 361.802,97.830 362.176,98.600 362.454 C 99.370 362.733,100.000 363.093,100.000 363.254 C 100.000 363.416,100.630 363.776,101.400 364.054 C 102.170 364.333,102.800 364.683,102.800 364.832 C 102.800 364.981,103.340 365.327,104.000 365.600 C 104.660 365.873,105.200 366.219,105.200 366.368 C 105.200 366.517,105.830 366.867,106.600 367.146 C 107.370 367.424,108.000 367.791,108.000 367.962 C 108.000 368.132,108.720 368.510,109.600 368.800 C 110.480 369.090,111.200 369.450,111.200 369.600 C 111.200 369.750,111.920 370.110,112.800 370.400 C 113.680 370.690,114.400 371.050,114.400 371.200 C 114.400 371.350,115.120 371.710,116.000 372.000 C 116.880 372.290,117.600 372.679,117.600 372.864 C 117.600 373.049,117.782 373.200,118.004 373.200 C 118.386 373.200,119.271 373.575,124.294 375.863 C 125.445 376.388,126.930 376.926,127.594 377.059 C 128.257 377.191,128.800 377.443,128.800 377.618 C 128.800 377.793,129.385 378.065,130.100 378.222 C 130.815 378.378,132.027 378.843,132.794 379.253 C 133.561 379.664,134.461 380.001,134.794 380.002 C 135.127 380.004,135.869 380.250,136.442 380.549 C 137.015 380.848,138.455 381.323,139.642 381.604 C 140.829 381.886,141.895 382.262,142.012 382.439 C 142.129 382.617,143.434 382.992,144.912 383.273 C 146.390 383.553,147.600 383.905,147.600 384.055 C 147.600 384.205,148.868 384.554,150.418 384.831 C 151.968 385.108,153.328 385.484,153.442 385.667 C 153.555 385.850,154.076 386.000,154.600 386.000 C 155.124 386.000,155.664 386.181,155.801 386.401 C 155.937 386.622,156.468 386.698,156.981 386.569 C 157.493 386.440,158.033 386.530,158.181 386.769 C 158.328 387.008,158.883 387.094,159.413 386.961 C 160.024 386.808,160.604 386.947,161.000 387.343 C 161.343 387.685,161.879 387.868,162.192 387.748 C 162.506 387.627,162.985 387.667,163.257 387.835 C 163.530 388.004,164.754 388.195,165.976 388.260 C 167.199 388.324,168.560 388.551,169.000 388.763 C 169.938 389.216,176.638 390.000,179.568 390.000 C 180.686 390.000,181.600 390.161,181.600 390.357 C 181.600 390.806,188.694 391.144,198.800 391.176 C 207.976 391.205,218.800 390.796,218.800 390.421 C 218.800 390.276,221.363 389.928,224.496 389.648 C 227.629 389.367,230.374 388.988,230.596 388.804 C 230.818 388.620,232.845 388.246,235.100 387.973 C 237.355 387.700,239.200 387.359,239.200 387.216 C 239.200 387.072,240.825 386.714,242.812 386.420 C 244.799 386.126,246.509 385.747,246.613 385.579 C 246.717 385.410,248.062 385.047,249.601 384.772 C 251.141 384.497,252.400 384.144,252.400 383.988 C 252.400 383.832,253.525 383.484,254.900 383.214 C 256.275 382.945,257.580 382.583,257.800 382.409 C 258.209 382.085,260.420 381.522,261.732 381.408 C 262.135 381.372,262.585 381.163,262.732 380.942 C 262.879 380.721,263.855 380.306,264.900 380.018 C 265.945 379.731,266.800 379.368,266.800 379.212 C 266.800 379.055,267.790 378.706,269.000 378.435 C 270.210 378.164,271.200 377.776,271.200 377.571 C 271.200 377.367,271.522 377.200,271.915 377.200 C 272.309 377.200,273.329 376.844,274.183 376.409 C 275.036 375.974,276.374 375.406,277.156 375.148 C 277.938 374.890,278.814 374.443,279.102 374.155 C 279.390 373.867,280.250 373.514,281.013 373.371 C 281.776 373.228,282.400 372.980,282.400 372.820 C 282.400 372.659,283.120 372.290,284.000 372.000 C 284.880 371.710,285.600 371.357,285.600 371.216 C 285.600 371.076,286.275 370.719,287.100 370.424 C 287.925 370.129,288.690 369.778,288.800 369.644 C 288.910 369.510,289.630 369.084,290.400 368.698 C 292.805 367.493,296.991 365.100,297.200 364.812 C 297.310 364.660,297.985 364.281,298.700 363.970 C 299.415 363.659,300.000 363.269,300.000 363.102 C 300.000 362.936,300.168 362.800,300.373 362.800 C 300.813 362.800,304.762 360.425,305.529 359.700 C 305.819 359.425,306.211 359.200,306.400 359.200 C 306.589 359.200,306.981 358.975,307.271 358.699 C 307.562 358.424,308.520 357.703,309.400 357.098 C 310.280 356.493,312.080 355.189,313.400 354.201 C 314.720 353.213,316.238 352.088,316.774 351.702 C 317.620 351.093,318.914 350.068,320.687 348.603 C 323.532 346.252,324.828 345.118,326.521 343.500 C 327.614 342.455,328.635 341.600,328.788 341.600 C 329.198 341.600,340.794 329.976,341.554 328.803 C 341.909 328.255,342.875 327.183,343.700 326.420 C 344.525 325.657,345.200 324.878,345.200 324.690 C 345.200 324.501,345.830 323.752,346.600 323.026 C 347.370 322.300,348.000 321.511,348.000 321.273 C 348.000 321.035,348.228 320.696,348.507 320.520 C 349.051 320.176,350.504 318.452,351.800 316.613 C 352.240 315.989,352.915 315.146,353.300 314.739 C 353.685 314.333,354.000 313.918,354.000 313.818 C 354.000 313.718,354.855 312.480,355.900 311.065 C 356.945 309.651,358.022 308.158,358.293 307.747 C 358.564 307.336,359.239 306.317,359.793 305.482 C 360.347 304.647,360.800 303.870,360.800 303.756 C 360.800 303.641,361.250 302.957,361.800 302.236 C 362.350 301.514,362.800 300.716,362.800 300.462 C 362.800 300.208,362.958 300.000,363.151 300.000 C 363.345 300.000,363.740 299.415,364.029 298.700 C 364.318 297.985,364.675 297.310,364.821 297.200 C 365.104 296.988,367.522 292.747,368.698 290.400 C 369.084 289.630,369.510 288.910,369.644 288.800 C 369.778 288.690,370.129 287.925,370.424 287.100 C 370.719 286.275,371.076 285.600,371.216 285.600 C 371.357 285.600,371.710 284.880,372.000 284.000 C 372.290 283.120,372.679 282.400,372.864 282.400 C 373.049 282.400,373.200 282.218,373.200 281.996 C 373.200 281.614,373.575 280.729,375.863 275.706 C 376.388 274.555,376.926 273.070,377.059 272.406 C 377.191 271.743,377.436 271.200,377.603 271.200 C 377.769 271.200,378.113 270.373,378.368 269.363 C 378.622 268.352,379.080 267.137,379.386 266.663 C 379.691 266.188,380.064 265.125,380.215 264.300 C 380.366 263.475,380.620 262.800,380.781 262.800 C 380.941 262.800,381.303 261.765,381.585 260.500 C 381.866 259.235,382.238 258.109,382.412 257.999 C 382.586 257.888,382.963 256.628,383.251 255.199 C 383.538 253.769,383.888 252.510,384.029 252.400 C 384.170 252.290,384.524 250.985,384.816 249.500 C 385.108 248.015,385.469 246.800,385.618 246.800 C 385.767 246.800,386.129 245.180,386.422 243.200 C 386.715 241.220,387.080 239.600,387.233 239.600 C 387.385 239.600,387.732 237.755,388.004 235.500 C 388.275 233.245,388.640 231.219,388.816 230.999 C 388.991 230.778,389.359 227.988,389.634 224.799 C 389.909 221.609,390.329 218.872,390.567 218.715 C 391.236 218.274,391.170 181.923,390.500 181.700 C 390.202 181.601,390.000 180.828,390.000 179.782 C 390.000 177.131,389.205 169.907,388.814 169.000 C 388.624 168.560,388.244 166.490,387.969 164.400 C 387.695 162.310,387.357 160.510,387.217 160.400 C 387.078 160.290,386.730 158.760,386.443 157.000 C 386.156 155.240,385.782 153.620,385.613 153.400 C 385.444 153.180,385.081 151.785,384.807 150.300 C 384.534 148.815,384.191 147.600,384.046 147.600 C 383.901 147.600,383.553 146.390,383.273 144.912 C 382.992 143.434,382.613 142.129,382.429 142.012 C 382.246 141.895,381.866 140.765,381.585 139.500 C 381.303 138.235,380.941 137.200,380.781 137.200 C 380.620 137.200,380.363 136.525,380.208 135.700 C 380.054 134.875,379.584 133.445,379.164 132.522 C 378.744 131.599,378.394 130.699,378.386 130.522 C 378.379 130.345,378.025 129.480,377.600 128.600 C 377.175 127.720,376.821 126.854,376.814 126.675 C 376.806 126.497,376.375 125.417,375.855 124.275 C 373.570 119.259,373.200 118.386,373.200 118.004 C 373.200 117.782,373.049 117.600,372.864 117.600 C 372.679 117.600,372.290 116.880,372.000 116.000 C 371.710 115.120,371.350 114.400,371.200 114.400 C 371.050 114.400,370.690 113.680,370.400 112.800 C 370.110 111.920,369.750 111.200,369.600 111.200 C 369.450 111.200,369.090 110.480,368.800 109.600 C 368.510 108.720,368.143 108.000,367.985 108.000 C 367.826 108.000,367.458 107.415,367.165 106.700 C 366.873 105.985,366.401 105.162,366.117 104.871 C 365.833 104.581,365.600 104.095,365.600 103.791 C 365.600 103.488,365.364 103.096,365.077 102.920 C 364.789 102.744,364.317 102.015,364.028 101.300 C 363.739 100.585,363.381 100.000,363.232 100.000 C 363.083 100.000,362.733 99.370,362.454 98.600 C 362.176 97.830,361.802 97.200,361.623 97.200 C 361.444 97.200,361.073 96.660,360.800 96.000 C 360.527 95.340,360.174 94.800,360.016 94.800 C 359.858 94.800,359.520 94.343,359.266 93.785 C 359.012 93.227,358.614 92.552,358.383 92.285 C 358.152 92.018,357.075 90.540,355.989 89.000 C 354.166 86.414,353.230 85.152,352.200 83.890 C 351.980 83.620,351.325 82.770,350.745 82.000 C 349.177 79.918,346.776 77.019,344.991 75.051 C 344.326 74.318,342.830 72.620,341.666 71.277 C 338.029 67.078,330.500 59.705,325.453 55.400 C 324.421 54.520,323.052 53.350,322.410 52.800 C 321.110 51.685,320.947 51.555,318.400 49.589 C 317.410 48.825,316.456 47.975,316.280 47.700 C 316.104 47.425,315.759 47.200,315.514 47.200 C 315.268 47.200,314.782 46.919,314.434 46.576 C 314.085 46.233,312.540 45.072,311.000 43.995 C 309.460 42.918,307.982 41.848,307.715 41.617 C 307.448 41.386,306.773 40.988,306.215 40.734 C 305.657 40.480,305.200 40.142,305.200 39.984 C 305.200 39.826,304.660 39.473,304.000 39.200 C 303.340 38.927,302.800 38.567,302.800 38.400 C 302.800 38.233,302.215 37.861,301.500 37.572 C 300.785 37.283,300.064 36.825,299.898 36.555 C 299.731 36.284,299.071 35.947,298.431 35.807 C 297.791 35.666,297.167 35.292,297.046 34.976 C 296.924 34.659,296.562 34.400,296.241 34.400 C 295.920 34.400,295.414 34.175,295.116 33.900 C 294.819 33.625,293.321 32.770,291.788 32.000 C 290.254 31.230,288.910 30.500,288.800 30.377 C 288.690 30.255,287.970 29.902,287.200 29.594 C 286.430 29.286,285.553 28.792,285.252 28.497 C 284.950 28.202,284.185 27.857,283.552 27.730 C 282.918 27.604,282.400 27.371,282.400 27.214 C 282.400 27.057,281.680 26.690,280.800 26.400 C 279.920 26.110,279.200 25.735,279.200 25.568 C 279.200 25.400,278.615 25.142,277.900 24.993 C 277.185 24.843,276.227 24.486,275.771 24.198 C 275.315 23.910,274.190 23.449,273.271 23.174 C 272.352 22.899,271.600 22.544,271.600 22.387 C 271.600 22.229,271.060 21.992,270.400 21.860 C 269.740 21.728,268.390 21.251,267.400 20.800 C 266.410 20.349,265.060 19.872,264.400 19.740 C 263.740 19.608,263.200 19.371,263.200 19.214 C 263.200 19.056,262.213 18.706,261.007 18.437 C 259.801 18.167,258.316 17.705,257.707 17.411 C 257.098 17.116,255.790 16.748,254.800 16.593 C 253.810 16.437,252.820 16.169,252.600 15.998 C 252.380 15.827,251.120 15.468,249.800 15.200 C 248.480 14.932,247.220 14.576,247.000 14.409 C 246.780 14.242,245.070 13.867,243.200 13.575 C 241.330 13.284,239.705 12.910,239.589 12.744 C 239.473 12.577,237.673 12.228,235.589 11.967 C 233.505 11.707,231.606 11.341,231.368 11.154 C 231.130 10.968,228.250 10.601,224.968 10.338 C 221.686 10.076,218.885 9.690,218.745 9.479 C 218.487 9.094,191.627 8.770,183.800 9.058 M100.077 130.003 C 120.934 133.020,138.926 150.582,142.585 171.496 C 143.429 176.325,143.354 183.196,142.373 190.685 C 139.891 209.652,142.901 219.846,151.905 222.963 C 156.729 224.633,148.479 225.300,142.887 223.692 C 136.952 221.985,131.508 217.860,128.756 212.984 C 127.074 210.003,127.148 210.002,123.891 213.020 C 98.423 236.617,58.107 227.747,44.397 195.530 C 38.795 182.365,41.329 162.254,49.953 151.443 C 50.749 150.445,51.906 148.947,52.524 148.114 C 62.340 134.885,82.017 127.391,100.077 130.003 M354.720 141.280 C 355.070 141.630,355.200 144.754,355.200 152.831 C 355.200 164.434,355.313 165.192,356.954 164.562 C 357.975 164.170,358.801 165.152,358.794 166.749 C 358.786 168.688,358.451 169.110,356.797 169.267 L 355.400 169.400 355.286 173.976 C 355.155 179.258,354.979 179.600,352.400 179.600 C 349.821 179.600,349.645 179.258,349.514 173.976 L 349.400 169.400 341.218 169.291 C 332.402 169.174,332.417 169.178,332.406 166.978 C 332.401 165.978,333.834 164.007,340.300 156.119 C 344.645 150.818,349.236 145.203,350.502 143.641 C 352.765 140.848,353.741 140.301,354.720 141.280 M86.359 142.953 C 56.516 153.132,50.290 188.828,75.014 208.002 C 81.693 213.182,91.512 216.019,94.471 213.623 L 95.344 212.916 93.844 212.635 C 84.535 210.888,73.866 202.038,69.210 192.200 C 60.221 173.207,73.210 148.647,94.573 144.242 C 98.829 143.364,99.109 142.875,95.830 142.049 C 92.934 141.320,90.451 141.557,86.359 142.953 M321.176 148.300 C 324.988 151.827,320.744 157.452,316.038 155.111 C 313.964 154.079,313.311 152.667,313.772 150.209 C 314.322 147.276,318.817 146.117,321.176 148.300 M254.793 148.714 L 255.674 149.427 255.620 176.393 C 255.581 195.434,255.435 203.516,255.123 203.893 C 254.794 204.290,253.597 204.397,250.440 204.313 L 246.200 204.200 245.935 202.200 C 245.789 201.100,245.654 188.945,245.635 175.189 C 245.595 146.660,245.366 148.543,248.908 148.295 C 253.482 147.974,253.918 148.005,254.793 148.714 M173.767 148.643 C 174.599 148.962,174.749 203.091,173.920 203.920 C 173.173 204.667,165.837 204.568,165.202 203.803 C 164.543 203.008,164.609 149.712,165.271 148.915 C 165.716 148.378,172.510 148.160,173.767 148.643 M240.423 149.243 C 240.902 150.138,240.818 157.317,240.323 157.811 C 240.170 157.963,234.710 158.059,228.188 158.024 C 219.625 157.978,216.173 158.090,215.765 158.429 C 215.291 158.823,215.200 162.472,215.200 181.169 C 215.200 206.928,215.744 204.400,210.200 204.400 C 204.656 204.400,205.200 206.933,205.200 181.134 C 205.200 159.298,205.183 158.819,204.407 158.403 C 203.894 158.129,199.474 157.991,191.944 158.012 C 178.478 158.051,179.615 158.469,179.606 153.474 C 179.596 147.763,175.758 148.400,210.200 148.400 L 239.972 148.400 240.423 149.243 M275.897 148.728 C 276.281 148.971,276.417 154.169,276.497 171.622 L 276.600 194.200 296.441 194.304 C 320.063 194.427,317.832 193.812,317.331 200.066 L 317.000 204.200 292.245 204.303 C 274.293 204.378,267.340 204.282,266.945 203.954 C 266.000 203.170,266.151 149.385,267.100 148.832 C 267.922 148.353,275.172 148.267,275.897 148.728 M317.200 148.684 C 314.282 149.757,314.577 153.433,317.644 154.198 C 319.082 154.557,320.900 152.994,320.900 151.400 C 320.900 149.557,318.873 148.069,317.200 148.684 M319.060 149.698 C 319.479 150.375,319.523 153.200,319.120 153.450 C 318.941 153.560,318.683 153.362,318.548 153.008 C 318.324 152.424,318.233 152.427,317.551 153.045 C 316.825 153.701,316.800 153.649,316.800 151.462 C 316.800 149.162,318.102 148.146,319.060 149.698 M344.500 158.495 C 341.805 161.734,339.600 164.478,339.600 164.592 C 339.600 165.097,349.228 164.792,349.424 164.281 C 349.534 163.995,349.573 161.251,349.512 158.183 L 349.400 152.605 344.500 158.495 M101.717 157.425 C 97.424 158.366,92.117 161.626,89.266 165.074 C 86.451 168.480,85.946 169.227,84.813 171.661 C 78.576 185.059,83.316 198.925,96.417 205.609 C 98.372 206.606,99.100 206.591,102.800 205.479 C 114.587 201.937,122.624 183.685,119.158 168.330 C 116.899 158.325,111.892 155.194,101.717 157.425 M325.111 236.223 C 326.107 236.920,326.286 238.465,325.452 239.157 C 324.310 240.105,46.310 239.782,45.666 238.832 C 44.986 237.829,45.407 236.454,46.535 235.999 C 48.283 235.295,324.102 235.516,325.111 236.223 M131.771 250.629 C 133.346 252.204,132.126 252.800,127.328 252.800 C 122.675 252.800,122.251 253.152,123.043 256.355 L 123.400 257.800 126.200 258.000 C 130.814 258.330,130.542 260.782,125.890 260.794 C 123.053 260.801,122.800 261.246,122.800 266.218 C 122.800 269.804,121.881 270.995,120.195 269.596 C 119.221 268.788,119.319 251.003,120.300 250.432 C 121.514 249.725,131.031 249.888,131.771 250.629 M146.700 250.624 C 157.320 252.790,153.382 271.507,142.661 269.817 C 132.779 268.260,132.565 252.299,142.400 250.385 C 143.760 250.120,144.402 250.156,146.700 250.624 M160.701 250.330 C 161.063 250.560,161.236 252.583,161.323 257.624 C 161.451 265.050,161.662 265.935,163.497 266.772 C 164.954 267.435,166.093 267.282,167.387 266.246 L 168.574 265.296 168.787 257.990 C 169.016 250.135,169.318 249.123,171.100 250.245 C 172.159 250.913,172.355 264.265,171.338 266.530 C 169.494 270.639,161.042 270.989,158.882 267.046 C 157.861 265.181,157.626 251.632,158.598 250.660 C 159.320 249.937,159.931 249.842,160.701 250.330 M191.331 250.500 C 191.948 250.951,192.005 251.905,191.908 260.195 C 191.781 271.049,191.623 271.383,188.744 266.920 C 187.779 265.424,185.912 262.672,184.595 260.803 L 182.200 257.407 182.089 263.176 C 181.975 269.051,181.737 270.000,180.380 270.000 C 178.563 270.000,178.421 269.284,178.433 260.156 C 178.451 247.265,178.196 247.280,186.730 259.679 C 188.587 262.378,188.862 261.904,188.762 256.177 C 188.659 250.302,189.256 248.983,191.331 250.500 M207.509 250.994 C 213.730 253.541,214.590 264.410,208.876 268.260 C 206.499 269.862,200.909 270.552,199.376 269.433 C 198.169 268.551,197.938 252.062,199.116 250.884 C 200.116 249.884,204.954 249.948,207.509 250.994 M246.967 250.526 C 248.526 251.666,247.603 252.584,244.681 252.800 C 241.139 253.061,241.213 252.874,241.206 261.620 C 241.200 269.191,241.045 270.008,239.620 269.994 C 237.899 269.977,237.809 269.578,237.600 261.115 L 237.400 253.000 234.815 252.879 C 231.442 252.720,230.469 251.988,231.829 250.629 C 232.676 249.781,245.827 249.693,246.967 250.526 M254.971 250.629 C 255.504 251.161,255.600 252.572,255.600 259.855 C 255.600 268.902,255.412 270.000,253.866 270.000 C 252.086 270.000,252.000 269.544,252.000 260.149 C 252.000 250.890,252.158 250.000,253.800 250.000 C 254.099 250.000,254.626 250.283,254.971 250.629 M274.774 251.386 C 279.117 253.632,280.310 262.140,276.922 266.704 C 273.749 270.976,266.092 270.841,263.191 266.461 C 257.184 257.393,265.489 246.585,274.774 251.386 M296.979 250.636 C 297.529 251.187,297.600 252.489,297.507 260.336 C 297.371 271.855,297.460 271.806,291.818 263.445 L 287.800 257.490 287.600 263.361 C 287.393 269.448,287.229 269.978,285.549 269.994 C 284.106 270.007,283.982 269.134,284.092 259.750 C 284.223 248.631,284.276 248.563,288.374 254.233 C 289.818 256.231,291.671 258.661,292.492 259.633 L 293.984 261.400 293.992 256.329 C 294.001 250.329,294.920 248.578,296.979 250.636 M226.294 254.200 C 227.048 256.180,227.920 258.610,228.232 259.600 C 228.544 260.590,228.974 261.760,229.188 262.200 C 231.410 266.771,231.910 269.507,230.584 269.840 C 229.265 270.171,228.162 269.187,227.822 267.377 C 227.518 265.757,226.846 265.500,223.383 265.678 L 221.000 265.800 220.481 267.400 C 219.784 269.545,219.112 270.165,217.834 269.844 C 216.472 269.503,216.514 268.947,218.240 264.400 C 219.033 262.310,220.123 259.430,220.660 258.000 C 221.198 256.570,221.919 254.680,222.263 253.800 C 222.606 252.920,223.050 251.782,223.248 251.272 C 223.923 249.534,224.859 250.434,226.294 254.200 M141.368 253.554 C 137.652 255.820,137.754 264.301,141.524 266.500 C 145.519 268.831,149.374 265.643,149.384 260.000 C 149.394 254.266,145.429 251.078,141.368 253.554 M202.243 253.433 C 202.109 253.781,202.000 256.736,202.000 260.000 C 202.000 266.969,202.057 267.200,203.784 267.200 C 209.269 267.200,211.471 256.511,206.563 253.707 C 204.714 252.649,202.595 252.515,202.243 253.433 M267.361 253.559 C 262.511 256.516,264.590 267.200,270.015 267.200 C 276.038 267.200,277.811 255.719,272.153 253.355 C 270.339 252.597,268.833 252.661,267.361 253.559 M223.805 256.900 C 223.009 259.236,222.000 262.415,222.000 262.587 C 222.000 262.704,222.900 262.800,224.000 262.800 C 226.306 262.800,226.286 262.864,225.161 259.162 C 224.306 256.348,224.106 256.015,223.805 256.900 " stroke="none" fill="#fbfbfb" fill-rule="evenodd"></path><path id="path2" d="M90.700 129.893 C 91.635 129.977,93.165 129.977,94.100 129.893 C 95.035 129.809,94.270 129.740,92.400 129.740 C 90.530 129.740,89.765 129.809,90.700 129.893 M85.505 130.283 C 86.002 130.379,86.722 130.375,87.105 130.275 C 87.487 130.175,87.080 130.096,86.200 130.101 C 85.320 130.105,85.007 130.187,85.505 130.283 M97.105 130.283 C 97.602 130.379,98.322 130.375,98.705 130.275 C 99.087 130.175,98.680 130.096,97.800 130.101 C 96.920 130.105,96.607 130.187,97.105 130.283 M98.277 143.173 C 98.426 143.743,97.796 144.003,94.460 144.748 C 85.675 146.709,75.980 153.519,72.280 160.329 C 71.062 162.570,71.597 162.755,73.200 160.647 C 78.922 153.123,91.567 148.794,100.828 151.189 C 106.641 152.692,112.017 155.402,111.344 156.491 C 111.232 156.672,111.289 156.794,111.470 156.763 C 112.262 156.625,112.816 156.865,113.992 157.855 C 120.526 163.353,122.409 178.012,118.001 189.076 C 115.481 195.403,109.594 203.935,107.713 203.987 C 107.444 203.994,107.311 204.225,107.416 204.500 C 107.521 204.775,106.790 205.630,105.791 206.400 C 104.792 207.170,103.125 208.479,102.087 209.310 C 99.739 211.188,97.309 212.390,95.774 212.432 C 95.128 212.449,94.825 212.554,95.100 212.665 C 96.543 213.247,93.364 215.174,90.933 215.191 C 90.237 215.196,89.602 215.393,89.523 215.630 C 88.960 217.321,71.911 217.663,69.806 216.026 C 69.583 215.852,68.860 215.582,68.200 215.425 C 67.540 215.268,65.920 214.626,64.600 213.998 C 63.280 213.369,61.750 212.662,61.200 212.426 C 60.650 212.190,59.120 211.185,57.800 210.194 C 56.480 209.203,54.950 208.080,54.400 207.699 C 53.850 207.317,52.080 205.654,50.468 204.003 C 47.784 201.255,47.630 201.153,48.652 202.800 C 64.818 228.853,100.631 233.734,123.191 212.960 C 126.625 209.798,127.009 209.612,127.858 210.700 C 128.612 211.665,128.011 209.985,126.626 207.251 C 125.108 204.257,124.380 199.210,123.993 189.000 C 123.312 171.070,119.239 160.230,109.762 151.133 C 105.451 146.995,97.910 141.768,98.277 143.173 M130.800 148.000 C 131.721 149.100,132.564 150.000,132.674 150.000 C 132.784 150.000,132.121 149.100,131.200 148.000 C 130.279 146.900,129.436 146.000,129.326 146.000 C 129.216 146.000,129.879 146.900,130.800 148.000 M346.801 148.598 C 346.286 149.148,345.939 149.664,346.032 149.746 C 346.124 149.828,346.619 149.378,347.130 148.747 C 348.276 147.335,348.074 147.244,346.801 148.598 M269.900 148.682 C 270.395 148.778,271.205 148.778,271.700 148.682 C 272.195 148.587,271.790 148.509,270.800 148.509 C 269.810 148.509,269.405 148.587,269.900 148.682 M180.093 150.400 C 180.093 151.170,180.175 151.485,180.276 151.100 C 180.376 150.715,180.376 150.085,180.276 149.700 C 180.175 149.315,180.093 149.630,180.093 150.400 M246.142 153.000 C 246.141 154.980,246.208 155.840,246.292 154.912 C 246.376 153.984,246.377 152.364,246.295 151.312 C 246.212 150.260,246.143 151.020,246.142 153.000 M314.032 150.700 C 313.995 152.223,314.621 152.449,314.896 151.012 C 314.999 150.469,314.946 150.110,314.776 150.215 C 314.607 150.319,314.377 150.179,314.266 149.902 C 314.154 149.626,314.049 149.985,314.032 150.700 M255.320 152.000 C 255.320 153.210,255.395 153.705,255.487 153.100 C 255.578 152.495,255.578 151.505,255.487 150.900 C 255.395 150.295,255.320 150.790,255.320 152.000 M275.787 171.800 C 275.787 183.900,275.837 188.908,275.900 182.928 C 275.962 176.949,275.962 167.049,275.900 160.928 C 275.838 154.808,275.787 159.700,275.787 171.800 M317.329 151.386 C 317.405 151.614,317.707 151.800,318.000 151.800 C 318.293 151.800,318.595 151.614,318.671 151.386 C 318.747 151.158,318.445 150.971,318.000 150.971 C 317.555 150.971,317.253 151.158,317.329 151.386 M316.752 154.512 C 316.945 154.705,317.619 154.798,318.251 154.719 C 319.309 154.587,319.281 154.559,317.900 154.368 C 317.040 154.249,316.550 154.310,316.752 154.512 M186.325 157.899 C 189.693 157.966,195.093 157.966,198.325 157.899 C 201.556 157.832,198.800 157.777,192.200 157.777 C 185.600 157.777,182.956 157.832,186.325 157.899 M215.149 158.300 C 214.664 158.919,214.674 158.943,215.234 158.506 C 215.697 158.145,219.135 157.982,228.034 157.900 L 240.200 157.788 227.949 157.694 C 216.691 157.608,215.653 157.657,215.149 158.300 M246.187 180.000 C 246.187 191.990,246.238 196.895,246.300 190.900 C 246.362 184.905,246.362 175.095,246.300 169.100 C 246.238 163.105,246.187 168.010,246.187 180.000 M354.493 162.400 C 354.493 163.170,354.575 163.485,354.676 163.100 C 354.776 162.715,354.776 162.085,354.676 161.700 C 354.575 161.315,354.493 161.630,354.493 162.400 M139.818 163.300 C 139.968 163.795,140.255 164.376,140.456 164.591 C 140.657 164.806,140.619 164.401,140.372 163.691 C 139.865 162.238,139.397 161.908,139.818 163.300 M339.628 163.370 C 338.662 164.399,338.799 165.231,339.924 165.154 C 340.533 165.112,340.531 165.089,339.900 164.924 C 338.992 164.687,339.017 164.446,340.070 163.326 C 340.548 162.817,340.849 162.400,340.739 162.400 C 340.629 162.400,340.129 162.837,339.628 163.370 M343.911 165.093 C 344.851 165.178,346.291 165.177,347.111 165.091 C 347.930 165.005,347.160 164.936,345.400 164.937 C 343.640 164.939,342.970 165.009,343.911 165.093 M354.493 171.200 C 354.493 171.970,354.575 172.285,354.676 171.900 C 354.776 171.515,354.776 170.885,354.676 170.500 C 354.575 170.115,354.493 170.430,354.493 171.200 M205.770 194.800 C 205.770 199.530,205.828 201.465,205.898 199.100 C 205.969 196.735,205.969 192.865,205.898 190.500 C 205.828 188.135,205.770 190.070,205.770 194.800 M141.293 195.200 C 141.293 195.970,141.375 196.285,141.476 195.900 C 141.576 195.515,141.576 194.885,141.476 194.500 C 141.375 194.115,141.293 194.430,141.293 195.200 M279.913 195.095 C 281.076 195.176,282.876 195.176,283.913 195.093 C 284.951 195.011,284.000 194.945,281.800 194.946 C 279.600 194.947,278.751 195.014,279.913 195.095 M292.525 195.099 C 296.004 195.166,301.584 195.166,304.925 195.099 C 308.266 195.032,305.420 194.978,298.600 194.978 C 291.780 194.978,289.046 195.033,292.525 195.099 M214.509 198.000 C 214.509 198.990,214.587 199.395,214.682 198.900 C 214.778 198.405,214.778 197.595,214.682 197.100 C 214.587 196.605,214.509 197.010,214.509 198.000 M140.920 200.400 C 140.920 201.610,140.995 202.105,141.087 201.500 C 141.178 200.895,141.178 199.905,141.087 199.300 C 140.995 198.695,140.920 199.190,140.920 200.400 M140.920 204.800 C 140.920 206.010,140.995 206.505,141.087 205.900 C 141.178 205.295,141.178 204.305,141.087 203.700 C 140.995 203.095,140.920 203.590,140.920 204.800 M249.500 203.893 C 250.435 203.977,251.965 203.977,252.900 203.893 C 253.835 203.809,253.070 203.740,251.200 203.740 C 249.330 203.740,248.565 203.809,249.500 203.893 M167.105 204.283 C 167.602 204.379,168.322 204.375,168.705 204.275 C 169.087 204.175,168.680 204.096,167.800 204.101 C 166.920 204.105,166.607 204.187,167.105 204.283 M79.200 204.533 C 79.200 204.643,79.920 205.303,80.800 206.000 C 81.680 206.697,82.400 207.177,82.400 207.067 C 82.400 206.957,81.680 206.297,80.800 205.600 C 79.920 204.903,79.200 204.423,79.200 204.533 M104.200 205.415 C 102.612 205.965,102.610 205.967,104.000 205.742 C 104.770 205.618,105.571 205.355,105.780 205.158 C 106.247 204.718,106.187 204.728,104.200 205.415 M98.705 206.683 C 99.202 206.779,99.922 206.775,100.305 206.675 C 100.687 206.575,100.280 206.496,99.400 206.501 C 98.520 206.505,98.207 206.587,98.705 206.683 M92.600 212.000 C 93.040 212.189,93.670 212.344,94.000 212.344 C 94.378 212.344,94.304 212.217,93.800 212.000 C 93.360 211.811,92.730 211.656,92.400 211.656 C 92.022 211.656,92.096 211.783,92.600 212.000 M142.828 214.600 C 142.828 214.820,143.086 215.450,143.400 216.000 C 143.714 216.550,143.972 216.820,143.972 216.600 C 143.972 216.380,143.714 215.750,143.400 215.200 C 143.086 214.650,142.828 214.380,142.828 214.600 M143.400 223.600 C 143.840 223.789,144.470 223.944,144.800 223.944 C 145.178 223.944,145.104 223.817,144.600 223.600 C 144.160 223.411,143.530 223.256,143.200 223.256 C 142.822 223.256,142.896 223.383,143.400 223.600 M147.891 224.289 C 148.601 224.377,149.861 224.379,150.691 224.292 C 151.521 224.205,150.940 224.133,149.400 224.131 C 147.860 224.129,147.181 224.200,147.891 224.289 M46.000 236.824 C 46.000 237.057,46.211 237.117,46.468 236.958 C 46.798 236.754,46.844 236.895,46.624 237.434 C 46.128 238.648,46.158 239.403,46.700 239.360 C 46.975 239.338,109.729 239.293,186.153 239.260 L 325.107 239.200 325.326 238.361 C 325.447 237.900,325.448 237.270,325.330 236.961 C 325.053 236.240,46.000 236.102,46.000 236.824 M122.882 250.696 C 124.358 250.773,126.878 250.773,128.482 250.697 C 130.087 250.621,128.880 250.558,125.800 250.558 C 122.720 250.557,121.407 250.619,122.882 250.696 M143.300 250.676 C 143.685 250.776,144.315 250.776,144.700 250.676 C 145.085 250.575,144.770 250.493,144.000 250.493 C 143.230 250.493,142.915 250.575,143.300 250.676 M200.300 250.682 C 200.795 250.778,201.605 250.778,202.100 250.682 C 202.595 250.587,202.190 250.509,201.200 250.509 C 200.210 250.509,199.805 250.587,200.300 250.682 M234.400 250.674 C 240.763 250.962,247.110 250.975,246.939 250.700 C 246.837 250.535,243.388 250.435,239.276 250.478 C 235.164 250.521,232.970 250.610,234.400 250.674 M254.600 260.000 C 254.600 265.238,254.735 269.440,254.900 269.338 C 255.065 269.236,255.200 265.034,255.200 260.000 C 255.200 254.966,255.065 250.764,254.900 250.662 C 254.735 250.560,254.600 254.762,254.600 260.000 M296.946 254.600 C 296.947 256.800,297.014 257.649,297.095 256.487 C 297.176 255.324,297.176 253.524,297.093 252.487 C 297.011 251.449,296.945 252.400,296.946 254.600 M168.964 257.800 C 168.963 261.540,169.023 263.124,169.097 261.320 C 169.171 259.515,169.172 256.455,169.098 254.520 C 169.025 252.584,168.964 254.060,168.964 257.800 M178.924 253.800 C 178.926 255.120,179.001 255.612,179.090 254.893 C 179.179 254.174,179.177 253.094,179.086 252.493 C 178.995 251.892,178.922 252.480,178.924 253.800 M160.958 257.400 C 160.958 260.480,161.021 261.687,161.097 260.082 C 161.173 258.478,161.173 255.958,161.096 254.482 C 161.019 253.007,160.957 254.320,160.958 257.400 M125.113 252.695 C 126.276 252.776,128.076 252.776,129.113 252.693 C 130.151 252.611,129.200 252.545,127.000 252.546 C 124.800 252.547,123.951 252.614,125.113 252.695 M233.907 252.690 C 234.626 252.779,235.706 252.777,236.307 252.686 C 236.908 252.595,236.320 252.522,235.000 252.524 C 233.680 252.526,233.188 252.601,233.907 252.690 M243.500 252.682 C 243.995 252.778,244.805 252.778,245.300 252.682 C 245.795 252.587,245.390 252.509,244.400 252.509 C 243.410 252.509,243.005 252.587,243.500 252.682 M122.520 255.200 C 122.520 256.410,122.595 256.905,122.687 256.300 C 122.778 255.695,122.778 254.705,122.687 254.100 C 122.595 253.495,122.520 253.990,122.520 255.200 M238.166 261.200 C 238.166 265.270,238.225 266.935,238.298 264.900 C 238.371 262.865,238.371 259.535,238.298 257.500 C 238.225 255.465,238.166 257.130,238.166 261.200 M290.354 257.936 C 290.799 258.560,291.479 259.325,291.865 259.636 C 292.252 259.946,291.960 259.435,291.217 258.500 C 289.691 256.580,289.125 256.210,290.354 257.936 M181.751 261.600 C 181.751 264.130,181.816 265.165,181.896 263.900 C 181.975 262.635,181.975 260.565,181.896 259.300 C 181.816 258.035,181.751 259.070,181.751 261.600 M261.709 258.800 C 261.709 259.790,261.787 260.195,261.882 259.700 C 261.978 259.205,261.978 258.395,261.882 257.900 C 261.787 257.405,261.709 257.810,261.709 258.800 M286.960 263.000 C 286.961 266.300,287.022 267.597,287.098 265.882 C 287.173 264.167,287.172 261.467,287.097 259.882 C 287.021 258.297,286.959 259.700,286.960 263.000 M138.120 260.000 C 138.120 261.210,138.195 261.705,138.287 261.100 C 138.378 260.495,138.378 259.505,138.287 258.900 C 138.195 258.295,138.120 258.790,138.120 260.000 M275.724 260.200 C 275.726 261.520,275.801 262.012,275.890 261.293 C 275.979 260.574,275.977 259.494,275.886 258.893 C 275.795 258.292,275.722 258.880,275.724 260.200 M264.109 260.000 C 264.109 260.990,264.187 261.395,264.282 260.900 C 264.378 260.405,264.378 259.595,264.282 259.100 C 264.187 258.605,264.109 259.010,264.109 260.000 M125.505 260.283 C 126.002 260.379,126.722 260.375,127.105 260.275 C 127.487 260.175,127.080 260.096,126.200 260.101 C 125.320 260.105,125.007 260.187,125.505 260.283 M221.849 260.615 C 221.712 260.973,221.618 261.656,221.641 262.133 C 221.667 262.681,221.803 262.486,222.010 261.603 C 222.360 260.116,222.265 259.533,221.849 260.615 M122.542 265.400 C 122.541 267.380,122.608 268.240,122.692 267.312 C 122.776 266.384,122.777 264.764,122.695 263.712 C 122.612 262.660,122.543 263.420,122.542 265.400 M191.737 265.800 C 191.739 267.560,191.809 268.230,191.893 267.289 C 191.978 266.349,191.977 264.909,191.891 264.089 C 191.805 263.270,191.736 264.040,191.737 265.800 M222.900 263.487 C 223.505 263.578,224.495 263.578,225.100 263.487 C 225.705 263.395,225.210 263.320,224.000 263.320 C 222.790 263.320,222.295 263.395,222.900 263.487 M178.893 264.800 C 178.893 265.570,178.975 265.885,179.076 265.500 C 179.176 265.115,179.176 264.485,179.076 264.100 C 178.975 263.715,178.893 264.030,178.893 264.800 M296.893 266.800 C 296.893 267.570,296.975 267.885,297.076 267.500 C 297.176 267.115,297.176 266.485,297.076 266.100 C 296.975 265.715,296.893 266.030,296.893 266.800 M164.105 269.487 C 164.714 269.579,165.614 269.577,166.105 269.482 C 166.597 269.387,166.100 269.311,165.000 269.314 C 163.900 269.317,163.497 269.395,164.105 269.487 M269.305 269.487 C 269.914 269.579,270.814 269.577,271.305 269.482 C 271.797 269.387,271.300 269.311,270.200 269.314 C 269.100 269.317,268.697 269.395,269.305 269.487 " stroke="none" fill="#9a729c" fill-rule="evenodd"></path><path id="path3" d="M86.700 129.882 C 87.195 129.978,88.005 129.978,88.500 129.882 C 88.995 129.787,88.590 129.709,87.600 129.709 C 86.610 129.709,86.205 129.787,86.700 129.882 M96.305 129.883 C 96.802 129.979,97.522 129.975,97.905 129.875 C 98.287 129.775,97.880 129.696,97.000 129.701 C 96.120 129.705,95.807 129.787,96.305 129.883 M81.264 130.473 C 80.309 130.687,79.605 130.938,79.699 131.032 C 79.792 131.126,81.024 130.950,82.435 130.641 C 83.846 130.333,84.550 130.082,84.000 130.083 C 83.450 130.084,82.219 130.260,81.264 130.473 M101.778 130.627 C 103.305 130.930,104.623 131.111,104.705 131.028 C 104.921 130.813,100.928 129.993,99.880 130.038 C 99.396 130.058,100.250 130.323,101.778 130.627 M111.200 133.400 C 111.750 133.714,112.380 133.972,112.600 133.972 C 112.820 133.972,112.550 133.714,112.000 133.400 C 111.450 133.086,110.820 132.828,110.600 132.828 C 110.380 132.828,110.650 133.086,111.200 133.400 M70.400 134.200 C 69.850 134.514,69.580 134.772,69.800 134.772 C 70.020 134.772,70.650 134.514,71.200 134.200 C 71.750 133.886,72.020 133.628,71.800 133.628 C 71.580 133.628,70.950 133.886,70.400 134.200 M114.033 134.549 C 114.445 134.917,116.800 136.000,116.800 135.821 C 116.800 135.590,114.582 134.400,114.153 134.400 C 113.996 134.400,113.942 134.467,114.033 134.549 M66.328 136.212 C 65.298 136.749,64.353 137.353,64.228 137.555 C 64.103 137.757,64.990 137.387,66.200 136.731 C 67.410 136.076,68.400 135.463,68.400 135.370 C 68.400 135.132,68.410 135.128,66.328 136.212 M117.200 136.150 C 117.200 136.244,117.841 136.699,118.624 137.161 C 119.407 137.623,119.936 137.820,119.799 137.598 C 119.531 137.164,117.200 135.866,117.200 136.150 M120.600 138.280 C 120.820 138.488,121.810 139.246,122.800 139.965 L 124.600 141.272 123.200 140.008 C 121.974 138.901,119.556 137.294,120.600 138.280 M58.800 141.487 C 56.514 143.437,52.101 148.267,51.482 149.495 C 51.287 149.883,51.618 149.570,52.219 148.800 C 52.820 148.030,55.093 145.645,57.270 143.500 C 59.447 141.355,61.177 139.602,61.114 139.605 C 61.051 139.607,60.010 140.454,58.800 141.487 M351.944 141.900 C 350.087 143.930,345.857 149.409,346.761 148.613 C 347.253 148.181,348.843 146.327,350.295 144.494 C 354.601 139.061,354.555 138.974,354.815 153.000 C 354.934 159.380,355.069 164.645,355.115 164.700 C 355.162 164.755,355.416 164.800,355.680 164.800 C 356.053 164.800,356.053 164.693,355.680 164.320 C 355.330 163.970,355.200 160.853,355.200 152.800 C 355.200 141.442,355.114 140.800,353.595 140.800 C 353.240 140.800,352.497 141.295,351.944 141.900 M91.300 141.487 C 91.905 141.578,92.895 141.578,93.500 141.487 C 94.105 141.395,93.610 141.320,92.400 141.320 C 91.190 141.320,90.695 141.395,91.300 141.487 M127.800 144.400 C 129.550 146.160,131.071 147.600,131.181 147.600 C 131.291 147.600,129.950 146.160,128.200 144.400 C 126.450 142.640,124.929 141.200,124.819 141.200 C 124.709 141.200,126.050 142.640,127.800 144.400 M85.200 143.000 C 84.430 143.297,84.070 143.539,84.400 143.539 C 84.730 143.539,85.630 143.297,86.400 143.000 C 87.170 142.703,87.530 142.461,87.200 142.461 C 86.870 142.461,85.970 142.703,85.200 143.000 M97.847 142.979 C 97.978 143.321,97.988 143.600,97.869 143.600 C 88.797 143.600,75.391 152.864,70.760 162.332 C 68.496 166.962,68.971 166.773,71.402 162.077 C 75.808 153.566,84.607 146.947,94.432 144.754 C 98.142 143.925,99.156 143.315,98.005 142.603 C 97.778 142.463,97.711 142.623,97.847 142.979 M81.200 144.600 C 80.650 144.914,80.380 145.172,80.600 145.172 C 80.820 145.172,81.450 144.914,82.000 144.600 C 82.550 144.286,82.820 144.028,82.600 144.028 C 82.380 144.028,81.750 144.286,81.200 144.600 M320.314 148.004 C 321.036 148.445,321.790 149.209,321.988 149.703 C 322.243 150.335,322.357 150.404,322.375 149.936 C 322.402 149.224,320.249 147.199,319.469 147.201 C 319.211 147.202,319.591 147.563,320.314 148.004 M314.744 148.366 C 314.225 148.787,313.890 149.201,314.000 149.287 C 314.110 149.373,314.634 149.029,315.163 148.522 C 316.330 147.406,316.055 147.303,314.744 148.366 M73.585 149.229 L 72.200 150.458 73.700 149.381 C 75.026 148.430,75.457 148.000,75.085 148.000 C 75.022 148.000,74.347 148.553,73.585 149.229 M132.383 149.500 C 133.126 150.435,133.806 151.200,133.894 151.200 C 134.177 151.200,132.463 148.949,131.735 148.364 C 131.348 148.054,131.640 148.565,132.383 149.500 M252.550 148.377 C 253.760 148.545,254.708 148.933,255.050 149.400 C 255.352 149.814,255.600 149.949,255.600 149.699 C 255.600 148.856,253.836 148.000,252.211 148.053 L 250.600 148.107 252.550 148.377 M165.280 148.880 C 164.915 149.245,164.823 155.168,164.895 173.580 L 164.991 197.800 165.195 173.400 L 165.400 149.000 169.000 148.776 L 172.600 148.551 169.180 148.476 C 166.960 148.427,165.592 148.568,165.280 148.880 M196.129 148.700 C 204.011 148.761,216.791 148.761,224.529 148.700 C 232.268 148.639,225.820 148.589,210.200 148.590 C 194.580 148.590,188.248 148.639,196.129 148.700 M239.600 148.790 C 240.038 149.066,240.262 150.227,240.429 153.084 L 240.657 157.000 240.729 153.474 C 240.800 149.967,240.414 148.394,239.486 148.406 C 239.183 148.410,239.225 148.554,239.600 148.790 M274.000 148.760 L 275.800 149.000 275.903 171.363 C 275.976 187.069,276.139 193.886,276.452 194.263 C 276.814 194.699,280.604 194.800,296.600 194.800 C 318.435 194.800,317.039 194.611,317.303 197.608 L 317.460 199.400 317.530 197.562 C 317.656 194.240,318.837 194.422,296.373 194.304 L 276.600 194.200 276.497 171.622 C 276.383 146.834,276.562 148.373,273.800 148.466 L 272.200 148.520 274.000 148.760 M319.746 149.229 C 320.326 149.685,320.814 150.360,320.832 150.729 C 320.853 151.189,320.930 151.234,321.074 150.871 C 321.295 150.319,319.743 148.400,319.076 148.400 C 318.865 148.400,319.166 148.773,319.746 149.229 M266.667 149.067 C 266.148 149.586,266.357 203.397,266.880 203.920 C 267.424 204.464,316.604 204.641,316.938 204.100 C 317.040 203.935,305.846 203.800,292.062 203.800 L 267.000 203.800 267.000 176.300 C 267.000 161.175,266.985 148.800,266.967 148.800 C 266.948 148.800,266.813 148.920,266.667 149.067 M316.800 149.587 C 316.800 149.801,317.115 149.857,317.500 149.713 C 318.087 149.493,318.120 149.549,317.703 150.062 C 317.430 150.398,317.325 150.792,317.470 150.937 C 317.844 151.310,318.487 151.264,318.250 150.881 C 318.142 150.705,318.218 150.300,318.420 149.981 C 318.622 149.661,318.804 149.580,318.825 149.800 C 319.002 151.716,318.948 152.800,318.676 152.800 C 318.498 152.800,318.466 152.983,318.604 153.207 C 319.068 153.958,319.445 153.261,319.406 151.722 C 319.385 150.883,319.230 149.972,319.060 149.698 C 318.699 149.114,316.800 149.021,316.800 149.587 M179.666 153.200 C 179.636 155.290,179.745 157.209,179.907 157.464 C 180.070 157.719,180.150 156.459,180.086 154.664 C 179.907 149.635,179.725 149.003,179.666 153.200 M341.162 155.100 C 338.686 158.125,335.860 161.545,334.881 162.700 C 333.903 163.855,333.202 164.800,333.323 164.800 C 333.514 164.800,335.337 162.632,344.509 151.500 C 345.370 150.455,345.982 149.600,345.869 149.600 C 345.756 149.600,343.638 152.075,341.162 155.100 M245.788 175.400 C 245.788 189.480,245.839 195.182,245.900 188.071 C 245.961 180.960,245.961 169.440,245.900 162.471 C 245.838 155.502,245.788 161.320,245.788 175.400 M313.701 151.400 C 313.705 152.280,313.787 152.593,313.883 152.095 C 313.979 151.598,313.975 150.878,313.875 150.495 C 313.775 150.113,313.696 150.520,313.701 151.400 M50.123 151.300 C 49.341 152.161,47.590 154.815,48.077 154.400 C 48.460 154.074,51.206 150.400,51.067 150.400 C 50.997 150.400,50.572 150.805,50.123 151.300 M255.693 151.600 C 255.693 152.370,255.775 152.685,255.876 152.300 C 255.976 151.915,255.976 151.285,255.876 150.900 C 255.775 150.515,255.693 150.830,255.693 151.600 M69.978 152.300 L 68.600 153.800 70.100 152.422 C 71.496 151.138,71.784 150.800,71.478 150.800 C 71.412 150.800,70.737 151.475,69.978 152.300 M322.446 151.267 C 322.421 151.634,322.296 152.264,322.170 152.667 C 321.952 153.362,321.963 153.363,322.397 152.687 C 322.648 152.296,322.773 151.666,322.673 151.287 C 322.511 150.668,322.488 150.666,322.446 151.267 M320.832 152.071 C 320.814 152.440,320.326 153.115,319.746 153.571 C 319.166 154.027,318.865 154.400,319.076 154.400 C 319.743 154.400,321.295 152.481,321.074 151.929 C 320.930 151.566,320.853 151.611,320.832 152.071 M317.033 152.657 C 316.655 153.642,316.982 153.704,317.798 152.802 C 318.412 152.124,318.428 152.000,317.905 152.000 C 317.564 152.000,317.172 152.296,317.033 152.657 M348.026 153.722 L 347.051 155.000 348.347 153.805 L 349.642 152.610 349.521 158.668 C 349.454 161.999,349.535 164.641,349.700 164.539 C 349.865 164.437,350.000 161.663,350.000 158.376 C 350.000 151.848,349.805 151.389,348.026 153.722 M321.376 154.040 C 321.226 154.281,320.541 154.724,319.852 155.024 C 319.157 155.326,318.902 155.576,319.278 155.584 C 319.907 155.599,322.535 153.641,321.924 153.613 C 321.772 153.606,321.525 153.798,321.376 154.040 M67.735 154.900 C 66.730 156.025,65.088 158.400,65.315 158.400 C 65.408 158.400,66.225 157.410,67.130 156.200 C 68.855 153.894,69.094 153.379,67.735 154.900 M137.096 156.665 C 137.923 158.241,138.657 159.474,138.727 159.405 C 138.903 159.230,137.002 155.574,136.228 154.600 C 135.878 154.160,136.269 155.089,137.096 156.665 M255.388 178.200 C 255.388 191.620,255.438 197.052,255.500 190.271 C 255.561 183.490,255.561 172.510,255.500 165.871 C 255.438 159.232,255.388 164.780,255.388 178.200 M343.045 159.757 C 340.930 162.263,339.200 164.433,339.200 164.580 C 339.200 164.726,340.227 163.620,341.482 162.123 C 342.738 160.625,344.559 158.455,345.531 157.300 C 346.502 156.145,347.206 155.200,347.094 155.200 C 346.982 155.200,345.160 157.251,343.045 159.757 M106.300 156.693 C 107.235 156.777,108.765 156.777,109.700 156.693 C 110.635 156.609,109.870 156.540,108.000 156.540 C 106.130 156.540,105.365 156.609,106.300 156.693 M101.200 157.200 C 99.856 157.631,101.308 157.631,103.000 157.200 C 104.078 156.926,104.098 156.894,103.200 156.887 C 102.650 156.883,101.750 157.024,101.200 157.200 M112.200 157.266 C 113.680 158.082,115.299 159.785,116.854 162.162 C 118.819 165.165,118.878 164.695,116.932 161.542 C 115.305 158.907,113.140 156.793,112.086 156.812 C 111.503 156.822,111.521 156.891,112.200 157.266 M215.252 158.537 C 214.939 158.914,214.776 165.731,214.703 181.437 L 214.600 203.800 210.200 203.800 L 205.800 203.800 205.595 181.400 L 205.390 159.000 205.295 181.220 C 205.185 206.931,204.649 204.400,210.200 204.400 C 215.744 204.400,215.200 206.924,215.200 181.200 C 215.200 164.436,215.318 158.842,215.680 158.480 C 215.944 158.216,216.056 158.000,215.929 158.000 C 215.802 158.000,215.497 158.242,215.252 158.537 M92.400 161.748 C 90.215 163.483,87.651 166.000,88.068 166.000 C 88.188 166.000,89.166 165.141,90.243 164.090 C 91.319 163.040,92.830 161.699,93.600 161.109 C 94.370 160.520,94.910 160.029,94.800 160.019 C 94.690 160.009,93.610 160.787,92.400 161.748 M62.779 163.055 C 62.558 163.636,62.452 164.185,62.543 164.276 C 62.633 164.367,62.899 163.892,63.133 163.220 C 63.653 161.728,63.339 161.582,62.779 163.055 M357.500 164.812 C 357.995 165.011,358.400 165.390,358.400 165.654 C 358.400 165.918,358.516 166.018,358.657 165.876 C 359.047 165.486,357.991 164.397,357.251 164.425 C 356.810 164.443,356.891 164.568,357.500 164.812 M118.416 165.033 C 118.460 165.999,119.921 171.298,119.952 170.600 C 119.995 169.626,118.994 165.260,118.648 164.915 C 118.512 164.778,118.407 164.832,118.416 165.033 M140.856 165.200 C 140.856 165.530,141.011 166.160,141.200 166.600 C 141.417 167.104,141.544 167.178,141.544 166.800 C 141.544 166.470,141.389 165.840,141.200 165.400 C 140.983 164.896,140.856 164.822,140.856 165.200 M61.246 167.239 C 61.001 167.943,60.813 168.718,60.828 168.960 C 60.844 169.202,61.114 168.696,61.430 167.835 C 61.745 166.974,61.933 166.200,61.848 166.115 C 61.762 166.029,61.492 166.535,61.246 167.239 M86.743 167.700 C 86.096 168.622,86.036 168.835,86.537 168.433 C 87.250 167.860,88.187 166.400,87.841 166.400 C 87.739 166.400,87.244 166.985,86.743 167.700 M68.046 168.439 C 67.801 169.143,67.613 169.918,67.628 170.160 C 67.644 170.402,67.914 169.896,68.230 169.035 C 68.545 168.174,68.733 167.400,68.648 167.315 C 68.562 167.229,68.292 167.735,68.046 168.439 M337.900 169.098 C 339.935 169.171,343.265 169.171,345.300 169.098 C 347.335 169.025,345.670 168.966,341.600 168.966 C 337.530 168.966,335.865 169.025,337.900 169.098 M355.263 169.324 C 355.022 169.615,354.777 171.892,354.714 174.424 L 354.600 179.000 352.400 179.000 L 350.200 179.000 350.086 174.406 C 350.023 171.879,349.843 169.683,349.686 169.524 C 349.225 169.061,349.609 178.529,350.075 179.090 C 350.634 179.763,354.176 179.752,354.737 179.076 C 354.978 178.785,355.223 176.508,355.286 173.976 L 355.400 169.400 357.000 169.157 L 358.600 168.914 357.149 168.857 C 356.351 168.826,355.502 169.036,355.263 169.324 M120.151 176.000 C 120.151 178.530,120.216 179.565,120.296 178.300 C 120.375 177.035,120.375 174.965,120.296 173.700 C 120.216 172.435,120.151 173.470,120.151 176.000 M66.656 173.284 C 66.521 173.788,66.428 174.650,66.449 175.200 C 66.472 175.789,66.631 175.471,66.836 174.425 C 67.203 172.552,67.073 171.727,66.656 173.284 M41.353 178.600 C 41.353 181.240,41.418 182.268,41.497 180.884 C 41.575 179.501,41.574 177.341,41.495 176.084 C 41.416 174.828,41.352 175.960,41.353 178.600 M142.931 176.600 C 142.933 178.140,143.005 178.721,143.092 177.891 C 143.179 177.061,143.177 175.801,143.089 175.091 C 143.000 174.381,142.929 175.060,142.931 176.600 M59.751 179.200 C 59.751 181.730,59.816 182.765,59.896 181.500 C 59.975 180.235,59.975 178.165,59.896 176.900 C 59.816 175.635,59.751 176.670,59.751 179.200 M66.120 178.800 C 66.120 180.010,66.195 180.505,66.287 179.900 C 66.378 179.295,66.378 178.305,66.287 177.700 C 66.195 177.095,66.120 177.590,66.120 178.800 M82.269 177.956 C 82.121 178.695,82.020 179.683,82.044 180.150 C 82.068 180.618,82.247 180.190,82.442 179.200 C 82.637 178.210,82.738 177.223,82.667 177.006 C 82.596 176.790,82.417 177.217,82.269 177.956 M81.720 183.200 C 81.720 184.410,81.795 184.905,81.887 184.300 C 81.978 183.695,81.978 182.705,81.887 182.100 C 81.795 181.495,81.720 181.990,81.720 183.200 M119.031 184.305 C 117.504 190.935,111.021 201.855,107.566 203.617 C 105.774 204.532,105.449 205.001,107.106 204.281 C 111.400 202.415,118.273 191.164,119.641 183.760 C 120.262 180.400,119.845 180.773,119.031 184.305 M142.928 183.600 C 142.928 185.030,143.001 185.615,143.089 184.900 C 143.178 184.185,143.178 183.015,143.089 182.300 C 143.001 181.585,142.928 182.170,142.928 183.600 M82.028 187.033 C 82.044 187.675,82.216 188.560,82.410 189.000 C 82.647 189.534,82.686 189.202,82.527 188.000 C 82.246 185.880,81.988 185.380,82.028 187.033 M67.663 187.800 C 67.662 188.020,67.903 188.830,68.200 189.600 C 68.497 190.370,68.745 190.730,68.752 190.400 C 68.758 190.070,68.517 189.260,68.214 188.600 C 67.912 187.940,67.664 187.580,67.663 187.800 M42.480 189.000 C 42.480 189.440,42.624 190.250,42.800 190.800 C 43.054 191.592,43.120 191.633,43.120 191.000 C 43.120 190.560,42.976 189.750,42.800 189.200 C 42.546 188.408,42.480 188.367,42.480 189.000 M68.800 191.353 C 68.800 191.782,69.990 194.000,70.221 194.000 C 70.331 194.000,70.123 193.415,69.759 192.700 C 69.017 191.240,68.800 190.936,68.800 191.353 M43.207 192.258 C 43.184 193.825,47.236 201.658,50.311 205.990 C 57.076 215.524,70.554 224.145,80.600 225.365 C 82.029 225.539,81.572 225.343,79.000 224.678 C 63.216 220.601,51.147 210.237,44.676 195.200 C 43.872 193.330,43.210 192.006,43.207 192.258 M83.600 192.953 C 83.600 193.382,84.790 195.600,85.021 195.600 C 85.131 195.600,84.923 195.015,84.559 194.300 C 83.817 192.840,83.600 192.536,83.600 192.953 M141.693 194.400 C 141.693 195.170,141.775 195.485,141.876 195.100 C 141.976 194.715,141.976 194.085,141.876 193.700 C 141.775 193.315,141.693 193.630,141.693 194.400 M85.564 196.733 C 85.780 197.136,86.271 197.721,86.655 198.033 C 87.087 198.384,86.990 198.104,86.401 197.300 C 85.351 195.865,84.957 195.598,85.564 196.733 M141.328 198.800 C 141.328 200.230,141.401 200.815,141.489 200.100 C 141.578 199.385,141.578 198.215,141.489 197.500 C 141.401 196.785,141.328 197.370,141.328 198.800 M73.214 198.762 C 73.958 199.732,75.443 201.442,76.514 202.562 C 77.817 203.926,77.573 203.541,75.777 201.400 C 72.586 197.597,71.326 196.300,73.214 198.762 M66.000 199.200 C 66.470 199.860,66.944 200.400,67.054 200.400 C 67.164 200.400,66.870 199.860,66.400 199.200 C 65.930 198.540,65.456 198.000,65.346 198.000 C 65.236 198.000,65.530 198.540,66.000 199.200 M87.559 199.313 C 88.226 200.162,92.000 203.360,92.000 203.077 C 92.000 202.968,90.875 201.917,89.500 200.740 C 88.125 199.564,87.252 198.922,87.559 199.313 M164.509 200.800 C 164.509 201.790,164.587 202.195,164.682 201.700 C 164.778 201.205,164.778 200.395,164.682 199.900 C 164.587 199.405,164.509 199.810,164.509 200.800 M71.244 204.872 C 73.391 207.002,75.565 208.951,76.074 209.204 C 76.588 209.460,76.377 209.169,75.600 208.552 C 74.830 207.940,72.656 205.991,70.770 204.220 C 67.644 201.286,67.686 201.344,71.244 204.872 M246.100 202.900 L 246.200 204.200 250.342 204.314 C 254.414 204.427,255.617 204.137,255.588 203.051 C 255.581 202.803,255.392 202.915,255.168 203.300 C 254.821 203.896,254.140 204.000,250.605 204.000 L 246.451 204.000 246.225 202.800 C 246.003 201.617,246.001 201.618,246.100 202.900 M173.780 203.577 C 173.571 203.784,172.410 204.021,171.200 204.103 L 169.000 204.252 171.251 204.326 C 172.835 204.378,173.649 204.222,174.000 203.800 C 174.547 203.141,174.385 202.977,173.780 203.577 M141.324 205.800 C 141.326 207.120,141.401 207.612,141.490 206.893 C 141.579 206.174,141.577 205.094,141.486 204.493 C 141.395 203.892,141.322 204.480,141.324 205.800 M94.800 204.996 C 94.800 205.270,97.249 206.484,97.432 206.301 C 97.519 206.214,96.962 205.844,96.195 205.478 C 95.428 205.112,94.800 204.895,94.800 204.996 M101.000 206.000 C 100.496 206.217,100.422 206.344,100.800 206.344 C 101.130 206.344,101.760 206.189,102.200 206.000 C 102.704 205.783,102.778 205.656,102.400 205.656 C 102.070 205.656,101.440 205.811,101.000 206.000 M81.167 206.545 C 81.700 207.201,83.200 208.193,83.200 207.889 C 83.200 207.813,82.615 207.322,81.900 206.799 C 81.096 206.210,80.816 206.113,81.167 206.545 M84.200 208.656 C 85.110 209.377,88.403 210.936,88.589 210.733 C 88.656 210.660,87.516 210.020,86.056 209.311 C 84.595 208.602,83.760 208.308,84.200 208.656 M77.200 209.755 C 77.200 210.031,80.021 211.712,80.194 211.539 C 80.278 211.455,79.638 210.980,78.773 210.482 C 77.908 209.984,77.200 209.657,77.200 209.755 M123.191 212.960 C 116.530 219.094,110.100 222.548,101.489 224.617 C 98.340 225.373,97.906 225.548,99.600 225.377 C 106.845 224.647,116.819 219.573,123.891 213.020 C 127.139 210.011,127.079 210.012,128.716 212.913 C 129.372 214.075,130.237 215.290,130.637 215.613 C 131.093 215.980,130.982 215.676,130.341 214.800 C 129.777 214.030,128.896 212.635,128.384 211.700 C 127.154 209.455,126.942 209.506,123.191 212.960 M91.000 211.814 C 91.660 212.117,92.470 212.358,92.800 212.352 C 93.130 212.345,92.770 212.097,92.000 211.800 C 90.174 211.097,89.455 211.107,91.000 211.814 M94.299 213.701 C 93.496 214.326,92.613 214.563,91.039 214.579 C 89.851 214.590,89.086 214.732,89.340 214.894 C 90.556 215.670,95.600 214.321,95.600 213.220 C 95.600 212.686,95.608 212.683,94.299 213.701 M132.400 217.800 C 133.146 218.570,133.847 219.200,133.957 219.200 C 134.067 219.200,133.546 218.570,132.800 217.800 C 132.054 217.030,131.353 216.400,131.243 216.400 C 131.133 216.400,131.654 217.030,132.400 217.800 M146.288 219.623 C 146.996 220.388,148.166 221.333,148.888 221.724 C 150.154 222.410,150.165 222.409,149.204 221.717 C 148.656 221.323,147.486 220.378,146.604 219.617 L 145.000 218.234 146.288 219.623 M139.600 222.600 C 140.150 222.914,140.870 223.171,141.200 223.170 C 141.530 223.169,141.194 222.906,140.454 222.584 C 138.751 221.845,138.294 221.853,139.600 222.600 M152.100 223.292 C 153.927 224.060,153.360 224.396,150.100 224.479 L 147.000 224.559 149.961 224.698 C 153.718 224.875,155.092 223.771,152.000 223.060 C 151.090 222.851,151.099 222.872,152.100 223.292 M84.242 226.077 C 86.222 226.429,93.240 226.425,95.600 226.070 C 96.594 225.921,94.104 225.800,90.042 225.800 C 85.995 225.800,83.385 225.925,84.242 226.077 M46.535 235.999 C 45.407 236.454,44.986 237.829,45.666 238.832 C 46.310 239.782,324.310 240.105,325.452 239.157 C 326.286 238.465,326.107 236.920,325.111 236.223 C 324.102 235.516,48.283 235.295,46.535 235.999 M325.330 236.961 C 325.448 237.270,325.447 237.900,325.326 238.361 L 325.107 239.200 186.153 239.260 C 109.729 239.293,46.975 239.338,46.700 239.360 C 46.401 239.384,46.150 238.796,46.076 237.900 L 45.952 236.400 185.533 236.400 C 304.973 236.400,325.145 236.481,325.330 236.961 M125.860 250.299 C 131.552 250.433,133.129 250.986,131.408 252.243 C 130.990 252.549,130.825 252.800,131.044 252.800 C 131.505 252.800,132.400 251.974,132.400 251.549 C 132.400 250.300,131.065 250.001,125.871 250.087 L 120.600 250.175 125.860 250.299 M160.000 250.539 C 160.550 250.829,161.085 250.996,161.188 250.911 C 161.470 250.680,160.290 250.012,159.600 250.012 C 159.269 250.012,159.449 250.248,160.000 250.539 M169.149 250.664 C 168.650 251.268,168.677 251.280,169.447 250.801 C 171.416 249.575,171.593 250.167,171.690 258.287 L 171.781 265.800 171.900 258.452 C 172.022 250.860,171.870 250.000,170.400 250.000 C 170.014 250.000,169.451 250.299,169.149 250.664 M202.305 250.283 C 202.802 250.379,203.522 250.375,203.905 250.275 C 204.287 250.175,203.880 250.096,203.000 250.101 C 202.120 250.105,201.807 250.187,202.305 250.283 M235.680 250.298 C 237.594 250.371,240.834 250.371,242.880 250.298 C 244.926 250.226,243.360 250.166,239.400 250.165 C 235.440 250.165,233.766 250.224,235.680 250.298 M119.867 250.667 C 119.262 251.271,119.571 269.078,120.195 269.596 C 120.848 270.138,122.800 269.833,122.800 269.189 C 122.800 268.953,122.498 268.982,122.053 269.260 C 120.079 270.493,119.963 269.936,120.086 259.807 C 120.149 254.633,120.185 250.399,120.167 250.400 C 120.148 250.400,120.013 250.520,119.867 250.667 M140.800 250.818 C 140.362 251.115,140.524 251.152,141.400 250.956 C 142.871 250.627,143.190 250.398,142.167 250.406 C 141.745 250.409,141.130 250.595,140.800 250.818 M146.642 250.968 C 147.546 251.250,148.491 251.609,148.742 251.764 C 148.994 251.920,149.200 251.937,149.200 251.803 C 149.200 251.444,146.543 250.396,145.713 250.427 C 145.321 250.441,145.739 250.685,146.642 250.968 M191.599 256.719 L 191.797 263.000 191.910 257.031 C 191.972 253.748,191.882 250.922,191.711 250.750 C 191.540 250.578,191.489 253.264,191.599 256.719 M223.227 251.150 C 222.992 251.588,222.814 252.184,222.832 252.474 C 222.849 252.763,223.044 252.505,223.265 251.900 C 223.666 250.801,224.553 250.435,224.937 251.210 C 225.049 251.436,225.094 251.390,225.037 251.110 C 224.867 250.269,223.685 250.294,223.227 251.150 M247.089 251.333 C 247.207 251.951,247.075 252.392,246.740 252.502 C 246.354 252.627,246.369 252.665,246.795 252.634 C 247.503 252.583,247.839 251.279,247.287 250.727 C 247.037 250.477,246.967 250.691,247.089 251.333 M266.800 250.818 C 266.362 251.115,266.524 251.152,267.400 250.956 C 268.871 250.627,269.190 250.398,268.167 250.406 C 267.745 250.409,267.130 250.595,266.800 250.818 M271.400 250.664 C 273.994 251.220,275.737 252.196,276.830 253.704 C 277.473 254.593,278.000 255.175,278.000 254.998 C 278.000 253.386,273.756 250.374,271.600 250.455 C 270.808 250.485,270.766 250.528,271.400 250.664 M284.267 250.667 C 283.759 251.175,283.960 269.000,284.480 269.520 C 286.588 271.628,287.600 269.561,287.600 263.148 C 287.600 259.020,287.721 257.628,288.062 257.838 C 288.348 258.015,288.415 257.948,288.238 257.662 C 287.474 256.425,287.212 257.678,287.111 263.057 C 286.994 269.216,286.708 270.111,285.054 269.476 C 284.475 269.254,284.400 268.173,284.400 260.013 C 284.400 249.376,284.444 249.278,287.385 253.400 C 288.406 254.830,289.343 256.000,289.469 256.000 C 289.595 256.000,289.524 255.775,289.310 255.500 C 289.097 255.225,288.170 253.965,287.249 252.700 C 285.685 250.551,284.910 250.023,284.267 250.667 M158.165 258.000 C 158.165 261.850,158.225 263.425,158.298 261.500 C 158.371 259.575,158.371 256.425,158.298 254.500 C 158.225 252.575,158.165 254.150,158.165 258.000 M252.089 260.020 C 252.024 266.605,252.130 269.170,252.480 269.520 C 253.012 270.052,254.647 270.170,254.939 269.698 C 255.042 269.532,254.557 269.397,253.863 269.398 L 252.600 269.400 252.389 260.200 L 252.177 251.000 252.089 260.020 M255.371 260.000 C 255.371 264.950,255.428 266.975,255.499 264.500 C 255.569 262.025,255.569 257.975,255.499 255.500 C 255.428 253.025,255.371 255.050,255.371 260.000 M293.999 256.300 L 293.998 261.400 292.366 259.600 L 290.735 257.800 292.216 259.700 C 294.299 262.373,294.400 262.221,294.400 256.400 C 294.400 253.540,294.310 251.200,294.200 251.200 C 294.090 251.200,294.000 253.495,293.999 256.300 M297.292 260.100 C 297.192 269.943,297.060 270.446,295.190 268.100 C 294.464 267.190,294.412 267.169,294.890 267.978 C 297.127 271.762,297.632 270.212,297.500 259.972 L 297.384 251.000 297.292 260.100 M137.641 253.014 C 136.959 253.792,136.400 254.548,136.400 254.694 C 136.400 254.840,136.536 254.789,136.703 254.580 C 136.870 254.371,137.533 253.615,138.178 252.900 C 138.822 252.185,139.245 251.600,139.116 251.600 C 138.988 251.600,138.324 252.236,137.641 253.014 M198.569 259.600 C 198.569 264.110,198.627 265.955,198.698 263.700 C 198.770 261.445,198.770 257.755,198.698 255.500 C 198.627 253.245,198.569 255.090,198.569 259.600 M208.800 251.725 C 208.800 251.794,209.385 252.379,210.100 253.025 L 211.400 254.200 210.225 252.900 C 209.130 251.688,208.800 251.416,208.800 251.725 M263.921 252.700 C 262.788 253.910,261.595 256.068,261.609 256.880 C 261.614 257.166,261.984 256.590,262.432 255.600 C 262.881 254.610,263.720 253.305,264.298 252.700 C 264.877 252.095,265.260 251.600,265.150 251.600 C 265.040 251.600,264.487 252.095,263.921 252.700 M150.399 253.100 C 150.922 253.815,151.413 254.400,151.489 254.400 C 151.793 254.400,150.801 252.900,150.145 252.367 C 149.713 252.016,149.810 252.296,150.399 253.100 M225.429 252.800 C 225.576 253.350,225.864 254.070,226.067 254.400 C 226.325 254.817,226.357 254.695,226.171 254.000 C 226.024 253.450,225.736 252.730,225.533 252.400 C 225.275 251.983,225.243 252.105,225.429 252.800 M140.892 253.421 C 140.405 253.762,139.809 254.437,139.568 254.921 C 139.203 255.652,139.286 255.623,140.064 254.743 C 140.579 254.161,141.360 253.492,141.800 253.255 C 142.240 253.018,142.415 252.819,142.189 252.812 C 141.963 252.805,141.379 253.079,140.892 253.421 M146.200 253.255 C 146.640 253.492,147.421 254.161,147.936 254.743 C 148.714 255.623,148.797 255.652,148.432 254.921 C 147.963 253.979,146.487 252.792,145.811 252.812 C 145.585 252.819,145.760 253.018,146.200 253.255 M178.562 259.000 C 178.562 262.520,178.624 263.906,178.698 262.081 C 178.772 260.256,178.772 257.376,178.697 255.681 C 178.622 253.986,178.561 255.480,178.562 259.000 M201.849 253.415 C 201.712 253.773,201.636 256.796,201.681 260.133 L 201.761 266.200 201.981 259.600 C 202.218 252.457,202.218 252.455,201.849 253.415 M205.233 252.928 C 205.869 253.415,208.400 254.736,208.400 254.581 C 208.400 254.313,205.882 252.803,205.433 252.801 C 205.232 252.801,205.142 252.857,205.233 252.928 M237.600 261.053 C 237.809 269.582,237.898 269.977,239.620 269.994 C 241.062 270.008,241.202 269.221,241.113 261.620 L 241.027 254.200 240.813 261.795 C 240.620 268.691,240.534 269.403,239.881 269.528 C 238.160 269.858,238.000 269.131,238.000 260.975 C 238.000 256.725,237.865 253.163,237.700 253.061 C 237.535 252.959,237.490 256.555,237.600 261.053 M266.369 253.969 C 265.726 254.612,265.207 255.377,265.216 255.669 C 265.225 255.961,265.499 255.709,265.824 255.108 C 266.150 254.508,266.908 253.750,267.508 253.424 C 268.109 253.099,268.361 252.825,268.069 252.816 C 267.777 252.807,267.012 253.326,266.369 253.969 M272.232 253.368 C 272.909 253.663,273.864 254.421,274.354 255.052 C 274.931 255.797,275.097 255.895,274.825 255.331 C 274.289 254.223,272.486 252.795,271.646 252.816 C 271.291 252.824,271.554 253.073,272.232 253.368 M183.200 255.200 C 183.670 255.860,184.144 256.400,184.254 256.400 C 184.364 256.400,184.070 255.860,183.600 255.200 C 183.130 254.540,182.656 254.000,182.546 254.000 C 182.436 254.000,182.730 254.540,183.200 255.200 M221.644 255.244 C 221.398 255.951,221.266 256.600,221.352 256.685 C 221.438 256.771,221.709 256.262,221.956 255.556 C 222.202 254.849,222.334 254.200,222.248 254.115 C 222.162 254.029,221.891 254.538,221.644 255.244 M211.667 255.620 C 211.901 256.292,212.167 256.767,212.257 256.676 C 212.456 256.478,211.701 254.400,211.431 254.400 C 211.327 254.400,211.433 254.949,211.667 255.620 M208.704 256.000 C 209.090 257.305,209.084 261.869,208.695 263.400 C 208.436 264.414,208.461 264.481,208.853 263.831 C 209.653 262.506,209.772 257.981,209.049 256.400 C 208.696 255.630,208.541 255.450,208.704 256.000 M135.452 256.900 C 135.133 258.092,135.184 262.419,135.528 263.285 C 135.678 263.662,135.800 262.177,135.800 259.985 C 135.800 255.613,135.799 255.605,135.452 256.900 M223.766 256.455 C 223.595 256.732,223.649 256.817,223.899 256.662 C 224.271 256.433,226.000 261.107,226.000 262.341 C 226.000 262.571,225.055 262.824,223.900 262.905 L 221.800 263.052 224.100 263.126 C 226.801 263.213,226.796 263.227,225.561 259.162 C 224.692 256.302,224.262 255.653,223.766 256.455 M264.649 257.015 C 264.512 257.373,264.418 258.056,264.441 258.533 C 264.467 259.081,264.603 258.886,264.810 258.003 C 265.160 256.516,265.065 255.933,264.649 257.015 M152.475 259.600 C 152.428 261.250,152.296 263.050,152.183 263.600 L 151.977 264.600 152.404 263.623 C 152.639 263.086,152.770 261.286,152.696 259.623 L 152.561 256.600 152.475 259.600 M278.493 258.000 C 278.493 258.770,278.575 259.085,278.676 258.700 C 278.776 258.315,278.776 257.685,278.676 257.300 C 278.575 256.915,278.493 257.230,278.493 258.000 M183.825 259.773 C 184.835 261.218,185.745 262.400,185.846 262.400 C 186.119 262.400,182.872 257.692,182.396 257.398 C 182.172 257.259,182.815 258.328,183.825 259.773 M222.891 258.500 C 222.210 260.384,222.304 260.894,223.026 259.230 C 223.353 258.477,223.566 257.699,223.501 257.502 C 223.435 257.305,223.160 257.754,222.891 258.500 M227.263 257.400 C 227.262 257.620,227.503 258.430,227.800 259.200 C 228.097 259.970,228.345 260.330,228.352 260.000 C 228.358 259.670,228.117 258.860,227.814 258.200 C 227.512 257.540,227.264 257.180,227.263 257.400 M261.328 260.000 C 261.328 261.430,261.401 262.015,261.489 261.300 C 261.578 260.585,261.578 259.415,261.489 258.700 C 261.401 257.985,261.328 258.570,261.328 260.000 M212.509 259.600 C 212.509 260.590,212.587 260.995,212.682 260.500 C 212.778 260.005,212.778 259.195,212.682 258.700 C 212.587 258.205,212.509 258.610,212.509 259.600 M220.065 259.417 C 219.809 259.978,219.607 260.654,219.616 260.919 C 219.624 261.183,219.897 260.788,220.222 260.039 C 220.905 258.465,220.761 257.890,220.065 259.417 M290.000 260.800 C 290.896 262.120,291.720 263.200,291.830 263.200 C 291.940 263.200,291.296 262.120,290.400 260.800 C 289.504 259.480,288.680 258.400,288.570 258.400 C 288.460 258.400,289.104 259.480,290.000 260.800 M149.693 260.000 C 149.693 260.770,149.775 261.085,149.876 260.700 C 149.976 260.315,149.976 259.685,149.876 259.300 C 149.775 258.915,149.693 259.230,149.693 260.000 M125.107 260.690 C 125.826 260.779,126.906 260.777,127.507 260.686 C 128.108 260.595,127.520 260.522,126.200 260.524 C 124.880 260.526,124.388 260.601,125.107 260.690 M187.762 261.507 C 188.674 262.576,188.800 262.604,188.800 261.733 C 188.800 261.367,188.682 261.185,188.537 261.330 C 188.392 261.475,187.987 261.373,187.637 261.103 C 187.247 260.803,187.295 260.960,187.762 261.507 M278.493 262.000 C 278.493 262.770,278.575 263.085,278.676 262.700 C 278.776 262.315,278.776 261.685,278.676 261.300 C 278.575 260.915,278.493 261.230,278.493 262.000 M218.667 263.267 C 218.305 264.188,218.074 265.007,218.154 265.088 C 218.234 265.168,218.600 264.483,218.967 263.567 C 219.333 262.650,219.564 261.831,219.479 261.746 C 219.394 261.661,219.029 262.345,218.667 263.267 M229.267 263.220 C 229.501 263.892,229.767 264.367,229.857 264.276 C 230.056 264.078,229.301 262.000,229.031 262.000 C 228.927 262.000,229.033 262.549,229.267 263.220 M211.462 264.496 C 211.312 265.095,210.613 266.264,209.909 267.093 C 208.750 268.458,208.736 268.506,209.753 267.600 C 211.038 266.456,212.123 264.568,211.892 263.876 C 211.806 263.618,211.612 263.896,211.462 264.496 M274.397 264.605 C 274.101 265.158,273.306 265.965,272.630 266.399 C 271.953 266.832,271.619 267.190,271.887 267.193 C 272.460 267.201,275.200 264.549,275.200 263.987 C 275.200 263.359,274.969 263.537,274.397 264.605 M139.214 264.126 C 139.151 265.592,142.020 267.625,144.047 267.550 C 145.380 267.501,145.376 267.496,143.789 267.235 C 141.938 266.930,140.452 266.004,139.730 264.703 C 139.454 264.207,139.222 263.947,139.214 264.126 M136.000 264.689 C 136.000 264.921,136.371 265.536,136.824 266.056 L 137.647 267.000 136.945 265.800 C 136.020 264.221,136.000 264.197,136.000 264.689 M148.089 265.027 C 147.896 265.371,147.212 266.000,146.569 266.424 C 145.926 266.848,145.541 267.196,145.714 267.197 C 146.297 267.202,148.030 265.892,148.430 265.143 C 148.911 264.246,148.588 264.136,148.089 265.027 M187.822 265.500 C 190.124 269.049,190.555 269.600,191.030 269.600 C 191.317 269.600,191.654 269.437,191.777 269.237 C 191.900 269.038,191.686 268.953,191.301 269.049 C 190.794 269.175,190.173 268.556,189.056 266.812 C 188.207 265.485,187.421 264.400,187.310 264.400 C 187.199 264.400,187.429 264.895,187.822 265.500 M207.780 265.232 C 207.633 265.470,206.947 266.010,206.256 266.431 C 205.565 266.852,205.222 267.198,205.494 267.199 C 206.006 267.200,208.813 264.832,208.324 264.812 C 208.172 264.805,207.927 264.995,207.780 265.232 M277.600 265.133 C 277.600 265.390,276.866 266.334,275.970 267.230 C 275.073 268.127,274.706 268.665,275.153 268.425 C 276.182 267.874,278.197 265.263,277.856 264.922 C 277.715 264.782,277.600 264.877,277.600 265.133 M161.822 265.711 C 162.123 266.499,163.536 267.397,163.901 267.032 C 164.029 266.905,163.930 266.800,163.682 266.800 C 163.434 266.800,162.853 266.395,162.391 265.900 C 161.751 265.215,161.616 265.170,161.822 265.711 M222.905 265.487 C 223.514 265.579,224.414 265.577,224.905 265.482 C 225.397 265.387,224.900 265.311,223.800 265.314 C 222.700 265.317,222.297 265.395,222.905 265.487 M149.838 267.295 C 148.362 268.835,148.528 269.029,150.137 267.644 C 150.773 267.096,151.840 265.538,151.514 265.633 C 151.451 265.652,150.697 266.399,149.838 267.295 M178.460 267.071 C 178.395 268.872,179.135 270.000,180.380 270.000 C 181.501 270.000,182.067 269.001,181.893 267.328 L 181.734 265.800 181.667 267.513 C 181.547 270.574,179.187 270.287,178.760 267.159 L 178.520 265.400 178.460 267.071 M230.629 266.800 C 230.776 267.350,231.064 268.070,231.267 268.400 C 231.525 268.817,231.557 268.695,231.371 268.000 C 231.224 267.450,230.936 266.730,230.733 266.400 C 230.475 265.983,230.443 266.105,230.629 266.800 M263.649 267.181 C 264.129 267.830,264.809 268.471,265.161 268.605 C 265.512 268.739,265.180 268.208,264.422 267.425 C 262.744 265.691,262.488 265.610,263.649 267.181 M202.100 266.800 C 202.200 267.169,202.788 267.422,203.631 267.456 C 204.885 267.508,204.899 267.497,203.801 267.320 C 203.142 267.214,202.453 266.919,202.271 266.664 C 202.047 266.351,201.991 266.395,202.100 266.800 M217.049 267.415 C 216.912 267.773,216.818 268.456,216.841 268.933 C 216.867 269.481,217.003 269.286,217.210 268.403 C 217.560 266.916,217.465 266.333,217.049 267.415 M219.742 268.349 C 219.462 269.091,218.942 269.599,218.348 269.711 C 217.432 269.885,217.430 269.893,218.291 269.946 C 219.212 270.002,220.601 268.403,220.332 267.596 C 220.253 267.359,219.987 267.698,219.742 268.349 M269.300 267.476 C 269.685 267.576,270.315 267.576,270.700 267.476 C 271.085 267.375,270.770 267.293,270.000 267.293 C 269.230 267.293,268.915 267.375,269.300 267.476 M228.006 268.038 C 227.993 269.425,229.942 270.404,231.169 269.627 C 231.565 269.377,231.328 269.287,230.392 269.333 C 229.323 269.386,228.938 269.193,228.528 268.400 C 228.203 267.770,228.010 267.636,228.006 268.038 M198.806 268.686 C 198.796 269.508,200.246 270.003,202.474 269.939 L 204.600 269.878 202.085 269.639 C 200.498 269.488,199.431 269.178,199.191 268.800 C 198.954 268.425,198.810 268.382,198.806 268.686 M140.498 269.199 C 140.881 269.440,142.141 269.713,143.298 269.805 L 145.400 269.973 143.536 269.625 C 142.510 269.433,141.250 269.161,140.736 269.019 C 139.942 268.801,139.906 268.828,140.498 269.199 M205.600 269.200 C 204.796 269.457,204.757 269.523,205.400 269.532 C 205.840 269.538,206.560 269.389,207.000 269.200 C 208.019 268.762,206.968 268.762,205.600 269.200 M266.400 269.182 C 266.730 269.405,267.345 269.591,267.767 269.594 C 268.790 269.602,268.471 269.373,267.000 269.044 C 266.124 268.848,265.962 268.885,266.400 269.182 M164.305 269.883 C 164.802 269.979,165.522 269.975,165.905 269.875 C 166.287 269.775,165.880 269.696,165.000 269.701 C 164.120 269.705,163.807 269.787,164.305 269.883 M269.300 269.876 C 269.685 269.976,270.315 269.976,270.700 269.876 C 271.085 269.775,270.770 269.693,270.000 269.693 C 269.230 269.693,268.915 269.775,269.300 269.876 " stroke="none" fill="#bba4b7" fill-rule="evenodd"></path><path id="path4" d="M354.493 144.800 C 354.493 145.570,354.575 145.885,354.676 145.500 C 354.776 145.115,354.776 144.485,354.676 144.100 C 354.575 143.715,354.493 144.030,354.493 144.800 M316.752 148.112 C 316.945 148.305,317.619 148.398,318.251 148.319 C 319.309 148.187,319.281 148.159,317.900 147.968 C 317.040 147.849,316.550 147.910,316.752 148.112 M354.544 152.000 C 354.544 154.090,354.612 154.945,354.694 153.900 C 354.776 152.855,354.776 151.145,354.694 150.100 C 354.612 149.055,354.544 149.910,354.544 152.000 M174.189 176.400 C 174.189 191.030,174.239 197.015,174.300 189.700 C 174.361 182.385,174.361 170.415,174.300 163.100 C 174.239 155.785,174.189 161.770,174.189 176.400 M316.806 151.700 C 316.810 152.584,316.923 152.826,317.157 152.456 C 317.472 151.959,317.317 150.400,316.953 150.400 C 316.869 150.400,316.803 150.985,316.806 151.700 M110.378 155.373 C 110.803 155.886,110.448 155.981,107.734 156.087 L 104.600 156.208 108.242 156.404 C 111.804 156.596,112.861 155.923,110.452 154.999 C 109.995 154.823,109.981 154.895,110.378 155.373 M350.142 159.400 C 350.141 161.380,350.208 162.240,350.292 161.312 C 350.376 160.384,350.377 158.764,350.295 157.712 C 350.212 156.660,350.143 157.420,350.142 159.400 M354.509 158.400 C 354.509 159.390,354.587 159.795,354.682 159.300 C 354.778 158.805,354.778 157.995,354.682 157.500 C 354.587 157.005,354.509 157.410,354.509 158.400 M98.400 157.800 C 97.094 158.547,97.551 158.555,99.254 157.816 C 99.994 157.494,100.330 157.231,100.000 157.230 C 99.670 157.229,98.950 157.486,98.400 157.800 M205.779 173.600 C 205.779 180.750,205.833 183.675,205.899 180.100 C 205.966 176.525,205.966 170.675,205.899 167.100 C 205.833 163.525,205.779 166.450,205.779 173.600 M89.781 163.700 L 88.200 165.400 89.900 163.819 C 91.481 162.348,91.784 162.000,91.481 162.000 C 91.416 162.000,90.651 162.765,89.781 163.700 M214.583 179.400 C 214.583 188.860,214.636 192.673,214.700 187.873 C 214.764 183.073,214.763 175.333,214.699 170.673 C 214.636 166.013,214.583 169.940,214.583 179.400 M59.340 179.200 C 59.340 181.070,59.409 181.835,59.493 180.900 C 59.577 179.965,59.577 178.435,59.493 177.500 C 59.409 176.565,59.340 177.330,59.340 179.200 M66.537 179.000 C 66.539 180.760,66.609 181.430,66.693 180.489 C 66.778 179.549,66.777 178.109,66.691 177.289 C 66.605 176.470,66.536 177.240,66.537 179.000 M70.360 193.800 C 71.034 195.105,71.588 195.828,71.585 195.400 C 71.583 195.180,71.214 194.550,70.764 194.000 C 70.221 193.336,70.085 193.269,70.360 193.800 M311.900 195.089 C 312.615 195.178,313.785 195.178,314.500 195.089 C 315.215 195.001,314.630 194.928,313.200 194.928 C 311.770 194.928,311.185 195.001,311.900 195.089 M45.207 196.104 C 45.187 196.962,47.076 200.197,48.472 201.696 L 50.059 203.400 48.847 201.800 C 48.180 200.920,47.090 199.210,46.424 198.000 C 45.759 196.790,45.211 195.937,45.207 196.104 M254.893 200.000 C 254.893 200.770,254.975 201.085,255.076 200.700 C 255.176 200.315,255.176 199.685,255.076 199.300 C 254.975 198.915,254.893 199.230,254.893 200.000 M316.793 201.881 C 316.687 203.025,316.747 203.815,316.926 203.635 C 317.105 203.456,317.191 202.519,317.118 201.554 L 316.985 199.800 316.793 201.881 M71.200 205.400 C 72.395 206.610,73.463 207.600,73.573 207.600 C 73.683 207.600,72.795 206.610,71.600 205.400 C 70.405 204.190,69.337 203.200,69.227 203.200 C 69.117 203.200,70.005 204.190,71.200 205.400 M171.800 203.600 L 169.800 203.874 171.676 203.937 C 172.708 203.972,173.664 203.820,173.800 203.600 C 173.936 203.380,173.992 203.228,173.924 203.263 C 173.856 203.297,172.900 203.449,171.800 203.600 M205.862 203.700 C 205.964 203.865,207.916 204.000,210.200 204.000 C 212.484 204.000,214.436 203.865,214.538 203.700 C 214.640 203.535,212.688 203.400,210.200 203.400 C 207.712 203.400,205.760 203.535,205.862 203.700 M279.500 203.900 C 286.155 203.961,297.045 203.961,303.700 203.900 C 310.355 203.838,304.910 203.788,291.600 203.788 C 278.290 203.788,272.845 203.838,279.500 203.900 M82.705 217.083 C 83.202 217.179,83.922 217.175,84.305 217.075 C 84.687 216.975,84.280 216.896,83.400 216.901 C 82.520 216.905,82.207 216.987,82.705 217.083 M198.956 251.371 C 198.835 251.685,198.804 252.360,198.886 252.871 C 198.995 253.554,199.088 253.404,199.237 252.300 C 199.447 250.747,199.336 250.381,198.956 251.371 M284.501 253.400 C 284.505 254.280,284.587 254.593,284.683 254.095 C 284.779 253.598,284.775 252.878,284.675 252.495 C 284.575 252.113,284.496 252.520,284.501 253.400 M188.953 257.000 C 188.953 259.640,189.018 260.668,189.097 259.284 C 189.175 257.901,189.174 255.741,189.095 254.484 C 189.016 253.228,188.952 254.360,188.953 257.000 M240.561 261.600 C 240.561 265.010,240.622 266.405,240.697 264.700 C 240.772 262.995,240.772 260.205,240.697 258.500 C 240.622 256.795,240.561 258.190,240.561 261.600 M198.957 262.400 C 198.957 265.370,199.020 266.585,199.097 265.100 C 199.174 263.615,199.174 261.185,199.097 259.700 C 199.020 258.215,198.957 259.430,198.957 262.400 M178.914 259.400 C 178.917 260.500,178.995 260.903,179.087 260.295 C 179.179 259.686,179.177 258.786,179.082 258.295 C 178.987 257.803,178.911 258.300,178.914 259.400 M296.901 264.200 C 296.905 265.080,296.987 265.393,297.083 264.895 C 297.179 264.398,297.175 263.678,297.075 263.295 C 296.975 262.913,296.896 263.320,296.901 264.200 M201.105 269.483 C 201.602 269.579,202.322 269.575,202.705 269.475 C 203.087 269.375,202.680 269.296,201.800 269.301 C 200.920 269.305,200.607 269.387,201.105 269.483 " stroke="none" fill="#948484" fill-rule="evenodd"></path></g></svg>