<svg width="217" height="206" viewBox="0 0 217 206" fill="none" xmlns="http://www.w3.org/2000/svg">
<path d="M112.12 56.7102C108.27 34.7866 96.8277 17.653 79.1945 4.20356C81.5321 0.113154 84.9139 1.35739 87.6603 1.32152C96.6893 1.20344 105.848 2.23208 114.726 1.18159C129.496 -0.566163 137.731 5.2736 143.205 17.2782C149.183 30.3888 153.72 43.5828 152.611 58.7303C157.009 50.8459 155.229 40.052 164.083 36.4664C173.79 32.5355 184.939 34.7503 196.914 35.8959C192.351 50.9347 184.892 64.1349 183.933 78.8685C189.022 82.1524 194.575 80.4002 199.713 80.8843C206.024 81.4788 209.886 83.5101 208.919 89.9896C208.874 90.2903 208.921 90.6021 208.921 90.9087C208.902 112.512 210.298 108.614 190.126 108.977C179.489 109.169 178.213 110.742 179.122 120.415C181.045 140.873 188.838 157.328 212.446 163.702C215.267 164.463 216.84 166.402 216.842 169.206C216.85 180.795 216.845 192.384 216.845 205.293C194.697 203.656 177.497 195.805 164.645 180.492C150.327 163.434 146.94 143.149 145.602 122.452C145.148 115.434 145.53 108.371 145.53 98.4199C138.69 112.015 131.769 122.506 124.083 132.622C119.864 138.177 124.452 144.58 125.513 150.383C126.98 158.398 124.379 161.142 115.817 160.683C108.483 160.29 101.1 160.456 93.7465 160.643C87.8179 160.794 85.3427 158.42 85.1817 153.007C84.8552 142.025 80.9155 131.92 74.659 122.689C66.4646 110.598 52.5546 106.149 41.3914 111.498C36.0449 114.059 33.5445 117.849 34.2174 123.454C34.8524 128.743 38.2744 131.872 43.4758 133.163C51.43 135.137 59.5902 134.889 67.0939 131.86C74.445 128.892 77.1204 131.701 79.3924 137.65C85.5068 153.66 83.3168 157.731 65.2537 160.106C55.0156 161.452 44.6823 161.839 34.4554 159.021C12.8791 153.075 -0.103602 138.065 0.768645 119.632C1.55669 102.978 17.8055 87.5408 38.4439 84.0262C60.5526 80.2612 80.1159 85.3057 97.2018 98.6316C98.7267 99.8209 100.281 100.979 101.846 102.124C102.091 102.304 102.468 102.333 103.896 102.78C113.688 88.826 114.522 73.4208 112.12 56.7102Z" fill="#497D00"/>
</svg>
